<svg width="370" height="372" viewBox="0 0 370 372" fill="none" xmlns="http://www.w3.org/2000/svg">
<g clip-path="url(#clip0_995_66)">
<path fill-rule="evenodd" clip-rule="evenodd" d="M199.536 227.505C189.901 231.746 185.626 242.951 189.989 252.532L214.253 305.82C218.616 315.401 229.963 319.73 239.599 315.489C249.234 311.248 253.509 300.043 249.146 290.462L224.882 237.174C220.519 227.593 209.172 223.264 199.536 227.505ZM258.286 362.198C269.491 359.303 276.317 348.215 273.531 337.432C270.745 326.648 259.404 320.253 248.199 323.147C236.994 326.042 230.168 337.13 232.954 347.913C235.74 358.697 247.081 365.092 258.286 362.198Z" fill="#2E2988"/>
<path d="M189.989 252.532L190.856 252.138L189.989 252.532ZM199.536 227.505L199.152 226.634L199.536 227.505ZM214.253 305.82L213.386 306.215L214.253 305.82ZM239.599 315.489L239.215 314.617L239.599 315.489ZM249.146 290.462L248.279 290.857L249.146 290.462ZM224.882 237.174L224.015 237.569L224.882 237.174ZM190.856 252.138C186.713 243.04 190.77 232.404 199.92 228.377L199.152 226.634C189.031 231.088 184.54 242.863 189.122 252.927L190.856 252.138ZM215.12 305.425L190.856 252.138L189.122 252.927L213.386 306.215L215.12 305.425ZM239.215 314.617C230.057 318.648 219.266 314.532 215.12 305.425L213.386 306.215C217.965 316.27 229.87 320.812 239.982 316.361L239.215 314.617ZM248.279 290.857C252.422 299.955 248.365 310.59 239.215 314.617L239.982 316.361C250.104 311.906 254.595 300.131 250.013 290.067L248.279 290.857ZM224.015 237.569L248.279 290.857L250.013 290.067L225.749 236.779L224.015 237.569ZM199.92 228.377C209.078 224.346 219.868 228.462 224.015 237.569L225.749 236.779C221.17 226.724 209.265 222.182 199.152 226.634L199.92 228.377ZM272.609 337.67C275.254 347.911 268.777 358.504 258.048 361.276L258.524 363.12C270.205 360.103 277.379 348.519 274.453 337.193L272.609 337.67ZM248.437 324.069C259.166 321.298 269.963 327.429 272.609 337.67L274.453 337.193C271.528 325.868 259.641 319.208 247.961 322.225L248.437 324.069ZM233.876 347.675C231.231 337.434 237.708 326.841 248.437 324.069L247.961 322.225C236.28 325.242 229.106 336.826 232.032 348.152L233.876 347.675ZM258.048 361.276C247.319 364.047 236.522 357.916 233.876 347.675L232.032 348.152C234.957 359.478 246.844 366.137 258.524 363.12L258.048 361.276Z" fill="#2E2988"/>
<path fill-rule="evenodd" clip-rule="evenodd" d="M169.729 224.625C160.72 219.181 149.105 222.132 143.787 231.216L115.02 280.356C109.702 289.44 112.694 301.217 121.703 306.661C130.712 312.105 142.327 309.155 147.645 300.07L176.412 250.931C181.73 241.847 178.738 230.069 169.729 224.625ZM93.7463 349.759C102.562 357.256 115.535 356.484 122.723 348.033C129.91 339.582 128.591 326.653 119.775 319.155C110.96 311.657 97.9863 312.43 90.7986 320.881C83.611 329.332 84.9307 342.261 93.7463 349.759Z" fill="#CE2553"/>
<path d="M143.787 231.216L142.965 230.735L143.787 231.216ZM169.729 224.625L170.222 223.81L169.729 224.625ZM115.02 280.356L115.842 280.837L115.02 280.356ZM121.703 306.661L122.196 305.846L121.703 306.661ZM147.645 300.07L148.467 300.552L147.645 300.07ZM176.412 250.931L175.59 250.45L176.412 250.931ZM144.609 231.697C149.659 223.072 160.682 220.271 169.236 225.44L170.222 223.81C160.758 218.091 148.552 221.192 142.965 230.735L144.609 231.697ZM115.842 280.837L144.609 231.697L142.965 230.735L114.198 279.875L115.842 280.837ZM122.196 305.846C113.633 300.671 110.787 289.472 115.842 280.837L114.198 279.875C108.617 289.408 111.756 301.763 121.211 307.476L122.196 305.846ZM146.823 299.589C141.773 308.215 130.75 311.015 122.196 305.846L121.211 307.476C130.675 313.195 142.881 310.094 148.467 300.552L146.823 299.589ZM175.59 250.45L146.823 299.589L148.467 300.552L177.234 251.412L175.59 250.45ZM169.236 225.44C177.8 230.615 180.645 241.815 175.59 250.45L177.234 251.412C182.815 241.878 179.677 229.523 170.222 223.81L169.236 225.44ZM121.997 347.415C115.175 355.437 102.807 356.215 94.3634 349.033L93.1292 350.484C102.316 358.298 115.896 357.53 123.448 348.65L121.997 347.415ZM119.158 319.88C127.602 327.062 128.82 339.394 121.997 347.415L123.448 348.65C131.001 339.769 129.579 326.243 120.392 318.429L119.158 319.88ZM91.5242 321.498C98.3467 313.476 110.714 312.698 119.158 319.88L120.392 318.429C111.205 310.615 97.6259 311.383 90.0731 320.264L91.5242 321.498ZM94.3634 349.033C85.9193 341.851 84.7016 329.52 91.5242 321.498L90.0731 320.264C82.5203 329.144 83.9421 342.67 93.1292 350.484L94.3634 349.033Z" fill="#CE2553"/>
<path fill-rule="evenodd" clip-rule="evenodd" d="M145.4 196.674C142.711 186.497 132.312 180.541 122.173 183.371L63.0964 199.864C52.9576 202.695 46.9184 213.239 49.6073 223.417C52.2963 233.594 62.6952 239.55 72.8339 236.719L131.911 220.226C142.049 217.396 148.089 206.851 145.4 196.674ZM3.78262 233.766C4.90439 245.284 14.7651 253.75 25.807 252.675C36.849 251.599 44.891 241.39 43.7692 229.872C42.6474 218.353 32.7867 209.888 21.7448 210.963C10.7028 212.038 2.66085 222.248 3.78262 233.766Z" fill="#FBBF24"/>
<path d="M122.173 183.371L121.917 182.454L122.173 183.371ZM63.0964 199.864L62.8403 198.947L63.0964 199.864ZM49.6073 223.417L48.6864 223.66L49.6073 223.417ZM72.8339 236.719L72.5778 235.802L72.8339 236.719ZM131.911 220.226L131.655 219.309L131.911 220.226ZM122.429 184.289C132.056 181.601 141.926 187.253 144.479 196.917L146.321 196.43C143.496 185.74 132.567 179.481 121.917 182.454L122.429 184.289ZM63.3525 200.782L122.429 184.289L121.917 182.454L62.8403 198.947L63.3525 200.782ZM50.5282 223.173C47.9723 213.5 53.7154 203.472 63.3525 200.782L62.8403 198.947C52.1999 201.917 45.8645 212.979 48.6864 223.66L50.5282 223.173ZM72.5778 235.802C62.9507 238.489 53.0814 232.837 50.5282 223.173L48.6864 223.66C51.5111 234.351 62.4396 240.61 73.09 237.636L72.5778 235.802ZM131.655 219.309L72.5778 235.802L73.09 237.636L132.167 221.144L131.655 219.309ZM144.479 196.917C147.035 206.591 141.292 216.618 131.655 219.309L132.167 221.144C142.807 218.173 149.143 207.111 146.321 196.43L144.479 196.917ZM25.7147 251.727C15.2336 252.747 5.80512 244.707 4.73062 233.674L2.83462 233.858C4.00367 245.862 14.2965 254.753 25.8994 253.623L25.7147 251.727ZM42.8212 229.964C43.8957 240.997 36.1958 250.706 25.7147 251.727L25.8994 253.623C37.5023 252.493 45.8862 241.783 44.7172 229.779L42.8212 229.964ZM21.8371 211.911C32.3182 210.89 41.7467 218.931 42.8212 229.964L44.7172 229.779C43.5481 217.776 33.2553 208.885 21.6524 210.015L21.8371 211.911ZM4.73062 233.674C3.65613 222.641 11.356 212.932 21.8371 211.911L21.6524 210.015C10.0495 211.145 1.66558 221.854 2.83462 233.858L4.73062 233.674Z" fill="#FBBF24"/>
<path fill-rule="evenodd" clip-rule="evenodd" d="M149.752 166.059C156.282 157.802 154.81 145.91 146.463 139.495L99.6579 103.525C91.3114 97.1113 79.2517 98.6045 72.7218 106.861C66.1919 115.117 67.6645 127.01 76.011 133.424L122.816 169.394C131.163 175.808 143.223 174.315 149.752 166.059ZM35.1228 75.0009C26.5797 82.8078 25.7212 95.7756 33.2052 103.965C40.6891 112.155 53.6817 112.465 62.2247 104.659C70.7678 96.8517 71.6264 83.8839 64.1424 75.6941C56.6584 67.5044 43.6659 67.194 35.1228 75.0009Z" fill="#2E2988"/>
<path d="M146.463 139.495L145.883 140.251L146.463 139.495ZM149.752 166.059L149.005 165.468L149.752 166.059ZM99.6579 103.525L100.238 102.77L99.6579 103.525ZM72.7218 106.861L73.4689 107.452L72.7218 106.861ZM76.011 133.424L76.5913 132.669L76.011 133.424ZM122.816 169.394L123.397 168.639L122.816 169.394ZM145.883 140.251C153.808 146.341 155.206 157.628 149.005 165.468L150.5 166.65C157.359 157.977 155.811 145.478 147.044 138.74L145.883 140.251ZM99.0775 104.281L145.883 140.251L147.044 138.74L100.238 102.77L99.0775 104.281ZM73.4689 107.452C79.6757 99.6039 91.144 98.1839 99.0775 104.281L100.238 102.77C91.4788 96.0386 78.8278 97.6051 71.9747 106.27L73.4689 107.452ZM76.5913 132.669C68.6661 126.578 67.2685 115.291 73.4689 107.452L71.9747 106.27C65.1153 114.943 66.6629 127.441 75.4306 134.179L76.5913 132.669ZM123.397 168.639L76.5913 132.669L75.4306 134.179L122.236 170.149L123.397 168.639ZM149.005 165.468C142.799 173.316 131.33 174.736 123.397 168.639L122.236 170.149C130.995 176.881 143.646 175.314 150.5 166.65L149.005 165.468ZM33.9083 103.323C26.8045 95.5491 27.5823 83.1819 35.7654 75.704L34.4803 74.2978C25.5772 82.4337 24.6379 96.0021 32.502 104.608L33.9083 103.323ZM61.5822 103.955C53.3992 111.433 41.0121 111.097 33.9083 103.323L32.502 104.608C40.3662 113.214 53.9641 113.498 62.8673 105.362L61.5822 103.955ZM63.4393 76.3366C70.5431 84.1104 69.7653 96.4776 61.5822 103.955L62.8673 105.362C71.7704 97.2258 72.7097 83.6573 64.8455 75.0516L63.4393 76.3366ZM35.7654 75.704C43.9484 68.2261 56.3355 68.5629 63.4393 76.3366L64.8455 75.0516C56.9814 66.4458 43.3834 66.1619 34.4803 74.2978L35.7654 75.704Z" fill="#2E2988"/>
<path fill-rule="evenodd" clip-rule="evenodd" d="M177.811 149.974C188.336 150.094 196.847 141.657 196.82 131.131L196.667 72.248C196.639 61.7216 188.084 53.0916 177.559 52.9722C167.033 52.8529 158.522 61.2894 158.55 71.8158L158.702 130.698C158.73 141.225 167.285 149.855 177.811 149.974ZM179.783 3.59798C168.382 1.61081 157.595 8.85997 155.69 19.7894C153.785 30.7189 161.483 41.1899 172.884 43.177C184.285 45.1642 195.072 37.915 196.977 26.9856C198.882 16.0561 191.184 5.58515 179.783 3.59798Z" fill="#CE2553"/>
<path d="M196.82 131.131L197.772 131.128L196.82 131.131ZM177.811 149.974L177.821 149.022L177.811 149.974ZM196.667 72.248L195.714 72.2505L196.667 72.248ZM177.559 52.9722L177.569 52.0198L177.559 52.9722ZM158.55 71.8158L157.597 71.8183L158.55 71.8158ZM158.702 130.698L159.655 130.696L158.702 130.698ZM195.867 131.133C195.893 141.128 187.816 149.135 177.821 149.022L177.8 150.927C188.857 151.052 197.801 142.186 197.772 131.128L195.867 131.133ZM195.714 72.2505L195.867 131.133L197.772 131.128L197.619 72.2456L195.714 72.2505ZM177.548 53.9246C187.553 54.0381 195.688 62.245 195.714 72.2505L197.619 72.2456C197.591 61.1983 188.616 52.145 177.569 52.0198L177.548 53.9246ZM159.502 71.8133C159.476 61.8182 167.553 53.8113 177.548 53.9246L177.569 52.0198C166.513 51.8944 157.568 60.7607 157.597 71.8183L159.502 71.8133ZM159.655 130.696L159.502 71.8133L157.597 71.8183L157.75 130.701L159.655 130.696ZM177.821 149.022C167.816 148.908 159.681 140.701 159.655 130.696L157.75 130.701C157.779 141.748 166.753 150.801 177.8 150.927L177.821 149.022ZM156.628 19.953C158.437 9.57871 168.699 2.6329 179.619 4.53632L179.946 2.65964C168.065 0.58873 156.753 8.14124 154.752 19.6259L156.628 19.953ZM173.048 42.2387C162.127 40.3353 154.82 30.3272 156.628 19.953L154.752 19.6259C152.75 31.1105 160.839 42.0445 172.721 44.1154L173.048 42.2387ZM196.038 26.822C194.23 37.1963 183.968 44.1421 173.048 42.2387L172.721 44.1154C184.602 46.1863 195.913 38.6338 197.915 27.1491L196.038 26.822ZM179.619 4.53632C190.54 6.43974 197.847 16.4478 196.038 26.822L197.915 27.1491C199.917 15.6645 191.828 4.73056 179.946 2.65964L179.619 4.53632Z" fill="#CE2553"/>
<path fill-rule="evenodd" clip-rule="evenodd" d="M219.196 197.933C217.087 208.246 223.76 218.199 234.101 220.165L290.726 230.927C301.067 232.892 311.16 226.125 313.27 215.813C315.379 205.5 308.706 195.547 298.365 193.581L241.74 182.819C231.399 180.854 221.306 187.62 219.196 197.933ZM362.561 227.583C366.67 216.764 361.593 204.8 351.222 200.861C340.851 196.922 329.112 202.499 325.003 213.318C320.894 224.137 325.97 236.101 336.342 240.04C346.713 243.979 358.452 238.402 362.561 227.583Z" fill="#CE2553"/>
<path d="M234.101 220.165L234.279 219.229L234.101 220.165ZM219.196 197.933L218.263 197.742L219.196 197.933ZM290.726 230.927L290.548 231.863L290.726 230.927ZM313.27 215.813L312.337 215.622L313.27 215.813ZM298.365 193.581L298.187 194.517L298.365 193.581ZM241.74 182.819L241.918 181.883L241.74 182.819ZM234.279 219.229C224.46 217.363 218.127 207.916 220.13 198.124L218.263 197.742C216.047 208.575 223.061 219.036 233.924 221.1L234.279 219.229ZM290.904 229.991L234.279 219.229L233.924 221.1L290.548 231.863L290.904 229.991ZM312.337 215.622C310.332 225.424 300.733 231.859 290.904 229.991L290.548 231.863C301.401 233.925 311.989 226.827 314.203 216.004L312.337 215.622ZM298.187 194.517C308.006 196.383 314.34 205.83 312.337 215.622L314.203 216.004C316.419 205.17 309.406 194.71 298.543 192.645L298.187 194.517ZM241.562 183.755L298.187 194.517L298.543 192.645L241.918 181.883L241.562 183.755ZM220.13 198.124C222.135 188.321 231.733 181.886 241.562 183.755L241.918 181.883C231.065 179.821 220.477 186.919 218.263 197.742L220.13 198.124ZM350.884 201.752C360.728 205.491 365.606 216.882 361.67 227.245L363.451 227.921C367.733 216.646 362.458 204.11 351.56 199.971L350.884 201.752ZM325.893 213.656C329.829 203.293 341.039 198.013 350.884 201.752L351.56 199.971C340.662 195.832 328.395 201.705 324.112 212.98L325.893 213.656ZM336.68 239.149C326.835 235.41 321.957 224.019 325.893 213.656L324.112 212.98C319.83 224.255 325.105 236.791 336.003 240.93L336.68 239.149ZM361.67 227.245C357.734 237.608 346.524 242.888 336.68 239.149L336.003 240.93C346.902 245.069 359.169 239.196 363.451 227.921L361.67 227.245Z" fill="#CE2553"/>
</g>
<defs>
<clipPath id="clip0_995_66">
<rect width="369.998" height="371.95" fill="white" transform="translate(0.00390625)"/>
</clipPath>
</defs>
</svg>
