<?xml version="1.0" encoding="UTF-8"?>
<svg version="1.1" xmlns="http://www.w3.org/2000/svg" width="800" height="800">
<path d="M0 0 C2.15709605 -0.00485475 4.31413952 -0.01412762 6.47121811 -0.02391815 C30.00131843 -0.10780079 53.08412336 1.49953453 76.19329453 6.18256378 C77.48348495 6.44005402 78.77367538 6.69754425 80.10296249 6.96283722 C112.27816154 13.47944546 143.04379728 23.44898536 172.75579453 37.43256378 C173.68408066 37.86649445 174.61236679 38.30042511 175.56878281 38.74750519 C203.59059758 51.96084186 229.82423384 68.77061931 253.75579453 88.43256378 C254.30284042 88.8819632 254.84988632 89.33136261 255.41350937 89.79438019 C267.30198798 99.61378282 278.4957024 110.07849188 289.44329453 120.93256378 C290.76200546 122.23169708 290.76200546 122.23169708 292.10735703 123.5570755 C297.34440815 128.78723576 302.16174381 134.20008939 306.78826523 139.97699738 C308.35173372 141.92827745 309.93763878 143.83687279 311.58391953 145.71772003 C332.32606427 169.50427634 349.21540101 197.11546917 362.83343124 225.52289581 C363.74871473 227.41790572 364.68946291 229.2984402 365.63470078 231.17865753 C379.08956982 258.34161544 388.27724647 287.64747265 394.50579453 317.24506378 C394.77553085 318.51052032 395.04526718 319.77597687 395.32317734 321.07978058 C396.23463841 325.51426023 397.01261437 329.96707262 397.75579453 334.43256378 C397.9280455 335.45702606 398.10029648 336.48148834 398.27776718 337.53699493 C401.45867812 357.03624619 402.39488018 376.08468963 402.2772789 395.80951691 C402.25449022 399.66121147 402.2680739 403.5117997 402.29103947 407.36345673 C402.39219768 427.39913634 401.07264599 446.64463148 397.75579453 466.43256378 C397.61103683 467.30944855 397.46627914 468.18633331 397.31713486 469.08979034 C396.50870873 473.89527717 395.5793054 478.6648816 394.56829453 483.43256378 C394.3509465 484.46912109 394.3509465 484.46912109 394.12920761 485.52661896 C385.19414834 527.85643237 368.85588848 568.29133905 346.75579453 605.43256378 C346.30848984 606.18505402 345.86118515 606.93754425 345.40032578 607.71283722 C327.61833431 637.38140605 305.42751595 663.79720198 281.06829453 688.24506378 C280.17706894 689.14096222 279.28584335 690.03686066 278.36761093 690.95990753 C273.32442744 695.99088901 268.1953022 700.83333358 262.75579453 705.43256378 C262.12101181 705.9740506 261.4862291 706.51553741 260.83221054 707.07343292 C250.21195304 716.07950734 239.25374449 724.57213718 227.75579453 732.43256378 C226.66742294 733.18255646 226.66742294 733.18255646 225.55706406 733.9477005 C224.85049667 734.41579132 224.14392929 734.88388214 223.41595078 735.36615753 C222.78439072 735.78824493 222.15283066 736.21033234 221.50213242 736.64521027 C219.75579453 737.43256378 219.75579453 737.43256378 216.75579453 736.43256378 C215.39080429 734.69062042 215.39080429 734.69062042 213.94720078 732.34272003 C213.38041611 731.43610626 212.81363144 730.52949249 212.22967148 729.59540558 C211.59891708 728.57229279 210.96816269 727.54917999 210.31829453 726.49506378 C208.86896364 724.18786502 207.41675845 721.88280495 205.95891953 719.58100128 C205.5584491 718.94806656 205.15797867 718.31513184 204.74537277 717.66301727 C199.16782487 708.88463552 193.35374509 700.26208864 187.56829453 691.62006378 C185.13892906 687.98790578 182.71063762 684.35503173 180.28313828 680.72162628 C179.36005119 679.33998291 179.36005119 679.33998291 178.41831589 677.93042755 C171.44392108 667.48178478 164.53594586 656.98954046 157.63079453 646.49506378 C149.95327913 634.82839289 142.26927872 623.16725205 134.50579453 611.55756378 C127.60446686 601.23415005 120.76429364 590.87166623 113.94329453 580.49506378 C113.42367142 579.70459656 112.90404831 578.91412933 112.36867905 578.09970856 C110.21002564 574.81570735 108.05151091 571.53161504 105.89313889 568.24742889 C99.207851 558.07580744 92.51491953 547.90922435 85.81829453 537.74506378 C85.19901077 536.80506531 84.57972702 535.86506683 83.94167709 534.89658356 C76.04199619 522.90812244 68.11097885 510.94177952 60.13225937 499.00580597 C54.69453087 490.86244523 49.31047481 482.68499083 43.94329453 474.49506378 C35.53996689 461.67376449 27.1256516 448.85979605 18.69329453 436.05756378 C18.08536057 435.13442383 17.47742661 434.21128387 16.8510704 433.26016998 C6.96252701 418.24910058 -3.00265983 403.29031845 -12.99377823 388.34738922 C-19.15746698 379.12502548 -25.30045024 369.90124695 -31.18170547 360.49506378 C-38.38538288 348.98506869 -46.06178495 337.79098591 -53.67432022 326.54969025 C-66.65131292 307.3821714 -79.41142638 288.075601 -92.1100502 268.72280121 C-93.06201936 267.27219604 -94.01559452 265.82264291 -94.97114944 264.37439728 C-95.78593236 263.13158257 -96.59187711 261.88290007 -97.38628006 260.62696075 C-99.48496737 257.34552622 -101.14425197 255.28534782 -104.91559219 253.91596222 C-110.46738037 252.76346268 -116.16362601 253.00710405 -121.80670547 253.05756378 C-123.10801407 253.04596222 -124.40932266 253.03436066 -125.75006485 253.02240753 C-127.00754532 253.02627472 -128.26502579 253.03014191 -129.56061172 253.03412628 C-130.69957901 253.03751007 -131.8385463 253.04089386 -133.01202774 253.04438019 C-138.61404292 253.71718056 -142.69022734 256.08648952 -146.24420547 260.43256378 C-146.85801279 263.27660183 -146.85801279 263.27660183 -146.78613663 266.48888397 C-146.80505211 267.74376051 -146.82396759 268.99863705 -146.84345627 270.29154015 C-146.84429806 271.69295865 -146.84472724 273.09437745 -146.84479141 274.4957962 C-146.8592387 275.99215128 -146.87536002 277.48849096 -146.89300156 278.98481178 C-146.9365126 283.13853587 -146.95431404 287.29204111 -146.96770191 291.44595742 C-146.98242147 295.03780762 -147.01169366 298.62948125 -147.04100013 302.2212376 C-147.14086696 314.49847448 -147.18973827 326.77574211 -147.23203278 339.05329037 C-147.2486018 343.65303086 -147.26814816 348.25275702 -147.28761721 352.85248601 C-147.40980931 381.91441289 -147.47124479 410.97616249 -147.48159409 440.03833961 C-147.48253197 442.65631994 -147.48348058 445.27430026 -147.48443985 447.89228058 C-147.48490893 449.19175247 -147.48537801 450.49122436 -147.4858613 451.83007419 C-147.4906392 461.90227043 -147.50830097 471.97440135 -147.52979937 482.04657159 C-147.55348093 493.23518548 -147.56571278 504.42376738 -147.56714129 515.61241025 C-147.56818446 521.82818504 -147.574001 528.04386404 -147.59196091 534.25961494 C-147.60835035 540.0316436 -147.61064221 545.80350271 -147.6018219 551.57554626 C-147.60104943 553.68758282 -147.60542171 555.79962838 -147.61528015 557.91164207 C-147.62792473 560.7871325 -147.62216666 563.66201293 -147.61169815 566.53749847 C-147.61975456 567.3735914 -147.62781096 568.20968433 -147.6361115 569.07111341 C-147.59594539 573.77058018 -147.05555816 576.49435926 -144.24420547 580.43256378 C-144.24420547 581.09256378 -144.24420547 581.75256378 -144.24420547 582.43256378 C-143.62545547 582.74193878 -143.00670547 583.05131378 -142.36920547 583.37006378 C-140.99420547 584.05756378 -139.61920547 584.74506378 -138.24420547 585.43256378 C-134.02062889 585.70449438 -129.78803579 585.66425624 -125.55670547 585.68256378 C-124.38430313 585.70318878 -123.21190079 585.72381378 -122.0039711 585.74506378 C-113.17225384 585.82110731 -113.17225384 585.82110731 -105.24420547 582.43256378 C-100.17315271 576.89893318 -100.65828899 571.28261872 -100.66998672 564.04975128 C-100.6576646 562.71434161 -100.64360853 561.37894707 -100.62802505 560.04357147 C-100.58926244 556.27187253 -100.5757397 552.50041199 -100.56568909 548.72854233 C-100.55039477 544.60690306 -100.51208731 540.48546865 -100.47687149 536.36396027 C-100.41255155 528.40201801 -100.36539724 520.44007211 -100.32526016 512.47797394 C-100.26751403 501.12078307 -100.19507681 489.76374611 -100.11627579 478.40668488 C-100.11045616 477.56690723 -100.10463654 476.72712959 -100.09864056 475.86190414 C-100.07457356 472.39227556 -100.0504528 468.92264735 -100.02626377 465.45301962 C-99.73809141 424.11302842 -99.4834821 382.77286409 -99.24420547 341.43256378 C-98.58420547 341.43256378 -97.92420547 341.43256378 -97.24420547 341.43256378 C-95.59049438 343.60636857 -94.064816 345.78461037 -92.55670547 348.05756378 C-91.55285283 349.54457914 -90.54894361 351.0315563 -89.54498672 352.51850128 C-88.73988663 353.7187796 -88.73988663 353.7187796 -87.91852188 354.94330597 C-85.65507299 358.30844521 -83.36520755 361.65523419 -81.07599258 365.00287628 C-72.64523378 377.33607749 -64.26704466 389.70520276 -55.88205338 402.06954193 C-53.1527116 406.09391499 -50.42163721 410.11710716 -47.68951797 414.13959503 C-37.1624916 429.64012451 -26.66552382 445.16081376 -16.17801285 460.68810272 C-15.64813766 461.472603 -15.11826248 462.25710327 -14.57233047 463.06537628 C-13.77739685 464.24230797 -13.77739685 464.24230797 -12.96640396 465.44301605 C-7.56301689 473.4422472 -2.1539319 481.43761907 3.25579453 489.43256378 C10.20553106 499.70378186 17.15230878 509.97698922 24.09441757 520.25336456 C26.19417246 523.36156423 28.29462958 526.46928748 30.3956871 529.57660675 C35.07816982 536.50258426 39.75735259 543.43065299 44.41834641 550.37111664 C54.39341526 565.2234273 64.36576401 580.02449154 75.15520859 594.30365753 C77.43982965 597.34238475 79.68641468 600.4085586 81.93523788 603.47382355 C87.3304026 610.82746077 92.77558956 618.14212337 98.25579453 625.43256378 C105.48688156 635.05224214 112.630752 644.73420104 119.75579453 654.43256378 C126.87115641 664.11383343 133.9997157 673.78300018 141.2238121 683.38349152 C145.03826535 688.45916006 148.80854013 693.5662833 152.56829453 698.68256378 C158.04080709 706.12857092 163.56951747 713.53037916 169.12322617 720.91596222 C175.26090102 729.08668669 181.32222114 737.31291462 187.36809921 745.55170441 C188.82024735 747.51992207 190.28580751 749.47764378 191.75579453 751.43256378 C190.28055889 755.38435255 188.37676856 756.48080239 184.63860703 758.28022003 C183.57118271 758.79753693 182.50375839 759.31485382 181.40398788 759.84784698 C180.24133408 760.39142853 179.07868027 760.93501007 177.88079453 761.49506378 C177.28300186 761.77780151 176.6852092 762.06053925 176.06930161 762.35184479 C128.66647205 784.74722238 74.80226414 800.71582756 22.02532578 800.76850128 C20.45856748 800.77496539 18.89181026 800.78169605 17.32505417 800.7886734 C14.05853114 800.80054192 10.79211293 800.80436573 7.52556992 800.80316925 C4.24376747 800.80300782 0.96252991 800.81673544 -2.31915665 800.84418488 C-23.35963124 801.01737939 -43.46556866 800.08343113 -64.24420547 796.43256378 C-65.0351561 796.29880341 -65.82610672 796.16504303 -66.64102554 796.02722931 C-70.69736777 795.3378993 -74.72272224 794.5512899 -78.74420547 793.68256378 C-79.92031387 793.43216339 -81.09642227 793.181763 -82.30817032 792.92377472 C-112.4502918 786.33756312 -141.40886685 776.76582085 -169.24420547 763.43256378 C-169.92950333 763.10578644 -170.61480118 762.77900909 -171.32086563 762.44232941 C-204.35009117 746.58315416 -234.65141921 726.5114645 -262.24420547 702.43256378 C-263.12721329 701.66299347 -264.0102211 700.89342316 -264.91998672 700.10053253 C-271.61773234 694.10067069 -278.01427894 687.78969665 -284.39514542 681.45685577 C-285.40236779 680.45767517 -286.41106578 679.45997937 -287.42139053 678.46393585 C-294.16805468 671.8025585 -300.33988004 664.85258801 -306.24420547 657.43256378 C-307.10759145 656.40501183 -307.97598283 655.38159868 -308.85358047 654.36615753 C-351.40744473 604.74586692 -379.40776576 542.13978393 -391.99420547 478.37006378 C-392.2088797 477.29486481 -392.2088797 477.29486481 -392.42789078 476.19794464 C-393.46412157 470.95791476 -394.3860028 465.7045491 -395.24420547 460.43256378 C-395.38440109 459.59085632 -395.52459671 458.74914886 -395.66904068 457.88193512 C-398.48335535 440.43478602 -398.74414707 423.07503265 -398.6902504 405.45331573 C-398.68108248 402.32316024 -398.6879574 399.1937525 -398.71075821 396.0636673 C-398.85989402 375.46602718 -397.76862077 355.77809183 -394.24420547 335.43256378 C-394.04514099 334.27229675 -393.84607651 333.11202972 -393.64097977 331.91660309 C-383.27563143 272.1087809 -359.62277744 214.19406985 -323.24420547 165.43256378 C-322.72116837 164.7269632 -322.19813126 164.02136261 -321.65924454 163.29438019 C-314.24648712 153.32833966 -306.48842325 143.72194606 -298.24420547 134.43256378 C-297.59113419 133.69191681 -296.9380629 132.95126984 -296.26520157 132.18817902 C-290.50180474 125.70803403 -284.49853907 119.50367166 -278.36920547 113.37006378 C-277.45268204 112.44129425 -276.5361586 111.51252472 -275.59186172 110.55561066 C-269.45515408 104.40595637 -263.03733369 98.84083859 -256.24420547 93.43256378 C-255.18208137 92.54508624 -254.12371109 91.65305561 -253.07233047 90.75287628 C-199.63643379 45.25140062 -132.94955198 16.73651691 -64.24420547 4.43256378 C-63.10934708 4.21938507 -61.97448868 4.00620636 -60.80524063 3.78656769 C-40.65730511 0.15550485 -20.40377161 0.03945707 0 0 Z M102.75579453 245.43256378 C99.04064012 250.81373035 98.16761362 254.64784209 98.2074852 261.10785675 C98.19701184 261.95671668 98.18653848 262.80557661 98.17574775 263.68015957 C98.14585174 266.51188327 98.14433987 269.34288088 98.14300156 272.17475128 C98.12775096 274.21054546 98.11089469 276.24632816 98.092556 278.28209686 C98.04871347 283.805263 98.03107378 289.32820769 98.02090311 294.85152817 C98.01360765 298.30726734 98.00112299 301.76294891 97.98690033 305.21866608 C97.9379193 317.28950283 97.91181114 329.36016791 97.90472031 341.43109894 C97.89745922 352.65754355 97.83773779 363.88289142 97.75391114 375.10900116 C97.68435119 384.76538556 97.65362072 394.42140802 97.65222824 404.07804108 C97.65064721 409.83736031 97.63338462 415.59556299 97.57623291 421.35462189 C97.5236061 426.77907841 97.51960299 432.2015037 97.55154419 437.62610054 C97.55515305 439.60652181 97.54197371 441.58706339 97.50990677 443.56722832 C97.3125579 456.55552609 99.2034565 464.70257944 107.50146461 474.84954834 C109.50138969 477.37353525 111.19070766 480.06319527 112.92376328 482.77631378 C113.58215195 483.78387726 114.24054062 484.79144073 114.91888046 485.82953644 C115.5869371 486.85353546 116.25499374 487.87753448 116.94329453 488.93256378 C117.6616246 490.03261749 118.37995468 491.1326712 119.12005234 492.26605988 C120.60044227 494.53320828 122.08037598 496.80065356 123.55999374 499.06830597 C125.70811357 502.36016186 127.85882009 505.6503236 130.00970078 508.94037628 C131.34179238 510.97939935 132.67382623 513.01846016 134.00579453 515.05756378 C134.61318466 515.98633331 135.2205748 516.91510284 135.8463707 517.87201691 C138.48467657 521.91418175 141.09274261 525.96536767 143.61516953 530.08100128 C144.32157578 531.18701691 145.02798203 532.29303253 145.75579453 533.43256378 C146.08579453 533.43256378 146.41579453 533.43256378 146.75579453 533.43256378 C147.86979793 519.78750259 147.89782225 506.18891729 147.88518906 492.50605011 C147.88654649 490.02235132 147.88832834 487.53865274 147.89049911 485.05495453 C147.89456301 479.04627023 147.89399964 473.03760332 147.89108647 467.02891973 C147.88881616 462.1414451 147.88852693 457.25397396 147.88961029 452.36649895 C147.88984014 451.31796817 147.88984014 451.31796817 147.89007463 450.24825495 C147.8903944 448.827676 147.89071861 447.40709705 147.89104722 445.98651811 C147.89388934 432.70934958 147.89063463 419.432188 147.88524686 406.15502062 C147.88077702 394.78830302 147.8815587 383.42159564 147.88616562 372.05487823 C147.89152875 358.81637027 147.89361786 345.57786836 147.89055336 332.33935946 C147.89023484 330.92530008 147.88992047 329.5112407 147.88961029 328.09718132 C147.88945602 327.40164637 147.88930174 326.70611143 147.88914279 325.98949966 C147.88828307 321.11225653 147.88972867 316.23501727 147.89208984 311.35777473 C147.89520283 304.78392288 147.89295631 298.21008723 147.88719559 291.63623619 C147.88587883 289.23091031 147.88624358 286.82558279 147.88845825 284.42025757 C149.55637494 262.5837734 149.55637494 262.5837734 141.54485703 243.82318878 C136.58698211 239.96946942 129.4573379 241.16680365 123.50579453 241.12006378 C122.29020859 241.09105988 121.07462265 241.06205597 119.82220078 241.03217316 C110.54331039 240.9612646 110.54331039 240.9612646 102.75579453 245.43256378 Z " fill="#FFFFFF" transform="translate(398.2442054748535,-0.43256378173828125)"/>
</svg>
