<?xml version="1.0" encoding="UTF-8"?>
<!DOCTYPE svg PUBLIC "-//W3C//DTD SVG 1.1//EN" "http://www.w3.org/Graphics/SVG/1.1/DTD/svg11.dtd">
<svg xmlns="http://www.w3.org/2000/svg" version="1.1" width="225px" height="225px" style="shape-rendering:geometricPrecision; text-rendering:geometricPrecision; image-rendering:optimizeQuality; fill-rule:evenodd; clip-rule:evenodd" xmlns:xlink="http://www.w3.org/1999/xlink">
<g><path style="opacity:1" fill="#30917d" d="M 7.5,-0.5 C 16.1667,-0.5 24.8333,-0.5 33.5,-0.5C 36.6664,3.44088 40.6664,6.10754 45.5,7.5C 45.7771,10.4475 45.4438,13.2809 44.5,16C 45.0253,16.6924 45.6919,17.1924 46.5,17.5C 47.2978,15.9223 47.7978,14.2556 48,12.5C 49.7583,13.4695 50.2583,14.6361 49.5,16C 52.0082,19.0422 55.0082,21.3756 58.5,23C 56.5,23.3333 54.5,23.6667 52.5,24C 57.2822,26.2926 60.6155,29.4593 62.5,33.5C 63.4519,35.0453 63.7852,36.712 63.5,38.5C 65.8489,38.4583 67.1822,39.6249 67.5,42C 64.4406,44.0893 62.4406,46.9226 61.5,50.5C 60.4928,51.8284 59.1595,52.8284 57.5,53.5C 55.2925,52.1368 52.9592,50.9701 50.5,50C 49.7476,49.3292 49.4142,48.4959 49.5,47.5C 49.8134,44.7531 49.48,42.0865 48.5,39.5C 47.8333,40.5 47.1667,41.5 46.5,42.5C 42.3555,39.7298 40.5222,35.7298 41,30.5C 40.6667,30.1667 40.3333,29.8333 40,29.5C 39.7978,31.2556 39.2978,32.9223 38.5,34.5C 37.1667,33.5 35.8333,32.5 34.5,31.5C 33.9204,28.0245 33.0871,24.6912 32,21.5C 30.2458,23.25 28.0792,23.9167 25.5,23.5C 25.9051,19.9521 25.4051,16.6188 24,13.5C 22.2458,15.25 20.0792,15.9167 17.5,15.5C 17.9051,11.9521 17.4051,8.61881 16,5.5C 15.2747,7.15798 14.108,7.65798 12.5,7C 11.6364,5.30348 10.3031,4.13681 8.5,3.5C 7.57131,2.31116 7.23798,0.977822 7.5,-0.5 Z"/></g>
<g><path style="opacity:1" fill="#389884" d="M 33.5,-0.5 C 43.5,-0.5 53.5,-0.5 63.5,-0.5C 63.5,2.16667 63.5,4.83333 63.5,7.5C 64.8333,7.5 66.1667,7.5 67.5,7.5C 67.5,10.1667 67.5,12.8333 67.5,15.5C 70.8499,15.335 74.1832,15.5017 77.5,16C 79.1553,18.5074 79.9886,21.3408 80,24.5C 82.5934,26.5486 85.0934,28.7152 87.5,31C 93.5,31.3333 99.5,31.6667 105.5,32C 102.381,33.4051 99.0479,33.9051 95.5,33.5C 95.5,34.5 95.5,35.5 95.5,36.5C 98.6938,37.7084 102.027,38.7084 105.5,39.5C 107.021,41.6214 109.021,43.1214 111.5,44C 113.197,44.3845 114.863,44.2178 116.5,43.5C 115.481,45.1015 113.981,46.1015 112,46.5C 105.445,42.889 98.7779,39.5556 92,36.5C 87.7631,38.3686 83.5964,40.3686 79.5,42.5C 73.9475,42.2172 69.6142,44.3839 66.5,49C 64.9751,50.0086 63.3084,50.5086 61.5,50.5C 62.4406,46.9226 64.4406,44.0893 67.5,42C 67.1822,39.6249 65.8489,38.4583 63.5,38.5C 63.7852,36.712 63.4519,35.0453 62.5,33.5C 60.6155,29.4593 57.2822,26.2926 52.5,24C 54.5,23.6667 56.5,23.3333 58.5,23C 55.0082,21.3756 52.0082,19.0422 49.5,16C 50.2583,14.6361 49.7583,13.4695 48,12.5C 47.7978,14.2556 47.2978,15.9223 46.5,17.5C 45.6919,17.1924 45.0253,16.6924 44.5,16C 45.4438,13.2809 45.7771,10.4475 45.5,7.5C 40.6664,6.10754 36.6664,3.44088 33.5,-0.5 Z"/></g>
<g><path style="opacity:1" fill="#3ba08a" d="M 63.5,-0.5 C 76.8333,-0.5 90.1667,-0.5 103.5,-0.5C 108.714,4.73059 114.047,9.89725 119.5,15C 114.52,15.526 114.187,17.026 118.5,19.5C 119.251,18.624 119.751,17.624 120,16.5C 122.593,18.5486 125.093,20.7152 127.5,23C 122.52,23.526 122.187,25.026 126.5,27.5C 127.251,26.624 127.751,25.624 128,24.5C 130.593,26.5486 133.093,28.7152 135.5,31C 134.376,31.2492 133.376,31.7492 132.5,32.5C 135.358,34.1249 137.358,36.4582 138.5,39.5C 136.448,38.2898 134.282,37.2898 132,36.5C 126.615,38.4439 121.449,40.7773 116.5,43.5C 114.863,44.2178 113.197,44.3845 111.5,44C 109.021,43.1214 107.021,41.6214 105.5,39.5C 102.027,38.7084 98.6938,37.7084 95.5,36.5C 95.5,35.5 95.5,34.5 95.5,33.5C 99.0479,33.9051 102.381,33.4051 105.5,32C 99.5,31.6667 93.5,31.3333 87.5,31C 85.0934,28.7152 82.5934,26.5486 80,24.5C 79.9886,21.3408 79.1553,18.5074 77.5,16C 74.1832,15.5017 70.8499,15.335 67.5,15.5C 67.5,12.8333 67.5,10.1667 67.5,7.5C 66.1667,7.5 64.8333,7.5 63.5,7.5C 63.5,4.83333 63.5,2.16667 63.5,-0.5 Z"/></g>
<g><path style="opacity:1" fill="#49b19a" d="M 144.5,-0.5 C 155.5,-0.5 166.5,-0.5 177.5,-0.5C 178.714,2.63406 181.047,4.63406 184.5,5.5C 185.059,9.05956 187.059,11.3929 190.5,12.5C 192.573,16.9062 195.906,19.9062 200.5,21.5C 201.059,25.0596 203.059,27.3929 206.5,28.5C 208.573,32.9062 211.906,35.9062 216.5,37.5C 217.281,38.7287 217.781,40.062 218,41.5C 220.81,42.957 222.977,44.957 224.5,47.5C 224.5,57.5 224.5,67.5 224.5,77.5C 223.732,78.2625 223.232,79.2625 223,80.5C 220.959,79.5769 218.792,79.2436 216.5,79.5C 216.665,76.4816 216.498,73.4816 216,70.5C 213.619,71.435 211.119,71.7683 208.5,71.5C 208.665,68.4816 208.498,65.4816 208,62.5C 206.951,63.5171 205.784,63.6838 204.5,63C 203.315,61.647 201.981,60.4803 200.5,59.5C 199.571,58.3112 199.238,56.9778 199.5,55.5C 197.167,55.5 194.833,55.5 192.5,55.5C 192.5,52.8333 192.5,50.1667 192.5,47.5C 189.833,47.5 187.167,47.5 184.5,47.5C 184.5,44.8333 184.5,42.1667 184.5,39.5C 181.833,39.5 179.167,39.5 176.5,39.5C 176.664,36.8127 176.497,34.146 176,31.5C 173.712,31.7375 171.212,31.7375 168.5,31.5C 168.664,28.8127 168.497,26.146 168,23.5C 167.621,28.2398 166.121,28.4065 163.5,24C 162.552,23.5172 161.552,23.3505 160.5,23.5C 160.5,20.8333 160.5,18.1667 160.5,15.5C 157.833,15.5 155.167,15.5 152.5,15.5C 152.5,12.8333 152.5,10.1667 152.5,7.5C 149.833,7.5 147.167,7.5 144.5,7.5C 144.5,4.83333 144.5,2.16667 144.5,-0.5 Z"/></g>
<g><path style="opacity:1" fill="#50b9a0" d="M 177.5,-0.5 C 193.167,-0.5 208.833,-0.5 224.5,-0.5C 224.5,15.5 224.5,31.5 224.5,47.5C 222.977,44.957 220.81,42.957 218,41.5C 217.781,40.062 217.281,38.7287 216.5,37.5C 211.906,35.9062 208.573,32.9062 206.5,28.5C 203.059,27.3929 201.059,25.0596 200.5,21.5C 195.906,19.9062 192.573,16.9062 190.5,12.5C 187.059,11.3929 185.059,9.05956 184.5,5.5C 181.047,4.63406 178.714,2.63406 177.5,-0.5 Z"/></g>
<g><path style="opacity:1" fill="#2a8c77" d="M -0.5,-0.5 C 2.16667,-0.5 4.83333,-0.5 7.5,-0.5C 7.23798,0.977822 7.57131,2.31116 8.5,3.5C 10.3031,4.13681 11.6364,5.30348 12.5,7C 14.108,7.65798 15.2747,7.15798 16,5.5C 17.4051,8.61881 17.9051,11.9521 17.5,15.5C 20.0792,15.9167 22.2458,15.25 24,13.5C 25.4051,16.6188 25.9051,19.9521 25.5,23.5C 28.0792,23.9167 30.2458,23.25 32,21.5C 33.0871,24.6912 33.9204,28.0245 34.5,31.5C 35.8333,32.5 37.1667,33.5 38.5,34.5C 39.2978,32.9223 39.7978,31.2556 40,29.5C 40.3333,29.8333 40.6667,30.1667 41,30.5C 40.5222,35.7298 42.3555,39.7298 46.5,42.5C 47.1667,41.5 47.8333,40.5 48.5,39.5C 49.48,42.0865 49.8134,44.7531 49.5,47.5C 48.5028,47.4701 47.8361,47.9701 47.5,49C 48.2718,50.221 49.2718,51.221 50.5,52C 49.4464,53.3876 49.2797,54.8876 50,56.5C 51.676,57.0611 53.0094,58.0611 54,59.5C 54.6667,66.8333 54.6667,74.1667 54,81.5C 52.4157,82.8613 50.5824,83.528 48.5,83.5C 48.219,76.2885 48.5523,69.1218 49.5,62C 49.1667,61.5 48.8333,61 48.5,60.5C 47.8333,65.5 47.1667,70.5 46.5,75.5C 45.0186,74.5197 43.6853,73.353 42.5,72C 43.4438,69.2809 43.7771,66.4475 43.5,63.5C 42.1667,63.5 40.8333,63.5 39.5,63.5C 39.1667,75.5 38.8333,75.5 38.5,63.5C 37.5,63.5 36.5,63.5 35.5,63.5C 35.5,60.8333 35.5,58.1667 35.5,55.5C 34.1667,55.5 32.8333,55.5 31.5,55.5C 31.762,56.9778 31.4287,58.3112 30.5,59.5C 29.0186,58.5197 27.6853,57.353 26.5,56C 27.4438,53.2809 27.7771,50.4475 27.5,47.5C 26.1667,47.5 24.8333,47.5 23.5,47.5C 23.762,48.9778 23.4287,50.3112 22.5,51.5C 21.0186,50.5197 19.6853,49.353 18.5,48C 19.4438,45.2809 19.7771,42.4475 19.5,39.5C 18.1667,39.5 16.8333,39.5 15.5,39.5C 15.762,40.9778 15.4287,42.3112 14.5,43.5C 13.0186,42.5197 11.6853,41.353 10.5,40C 11.4438,37.2809 11.7771,34.4475 11.5,31.5C 10.1667,31.5 8.83333,31.5 7.5,31.5C 7.76202,32.9778 7.42869,34.3112 6.5,35.5C 5.01862,34.5197 3.68529,33.353 2.5,32C 3.44379,29.2809 3.77712,26.4475 3.5,23.5C 2.16667,23.5 0.833333,23.5 -0.5,23.5C -0.5,15.5 -0.5,7.5 -0.5,-0.5 Z"/></g>
<g><path style="opacity:1" fill="#298773" d="M -0.5,23.5 C 0.833333,23.5 2.16667,23.5 3.5,23.5C 3.77712,26.4475 3.44379,29.2809 2.5,32C 3.68529,33.353 5.01862,34.5197 6.5,35.5C 7.42869,34.3112 7.76202,32.9778 7.5,31.5C 8.83333,31.5 10.1667,31.5 11.5,31.5C 11.7771,34.4475 11.4438,37.2809 10.5,40C 11.6853,41.353 13.0186,42.5197 14.5,43.5C 15.4287,42.3112 15.762,40.9778 15.5,39.5C 16.8333,39.5 18.1667,39.5 19.5,39.5C 19.7771,42.4475 19.4438,45.2809 18.5,48C 19.6853,49.353 21.0186,50.5197 22.5,51.5C 23.4287,50.3112 23.762,48.9778 23.5,47.5C 24.8333,47.5 26.1667,47.5 27.5,47.5C 27.7771,50.4475 27.4438,53.2809 26.5,56C 27.6853,57.353 29.0186,58.5197 30.5,59.5C 31.4287,58.3112 31.762,56.9778 31.5,55.5C 32.8333,55.5 34.1667,55.5 35.5,55.5C 35.5,58.1667 35.5,60.8333 35.5,63.5C 36.5,63.5 37.5,63.5 38.5,63.5C 38.8333,75.5 39.1667,75.5 39.5,63.5C 40.8333,63.5 42.1667,63.5 43.5,63.5C 43.7771,66.4475 43.4438,69.2809 42.5,72C 43.6853,73.353 45.0186,74.5197 46.5,75.5C 47.1667,70.5 47.8333,65.5 48.5,60.5C 48.8333,61 49.1667,61.5 49.5,62C 48.5523,69.1218 48.219,76.2885 48.5,83.5C 50.5824,83.528 52.4157,82.8613 54,81.5C 54.6667,74.1667 54.6667,66.8333 54,59.5C 53.0094,58.0611 51.676,57.0611 50,56.5C 49.2797,54.8876 49.4464,53.3876 50.5,52C 49.2718,51.221 48.2718,50.221 47.5,49C 47.8361,47.9701 48.5028,47.4701 49.5,47.5C 49.4142,48.4959 49.7476,49.3292 50.5,50C 52.9592,50.9701 55.2925,52.1368 57.5,53.5C 59.1595,52.8284 60.4928,51.8284 61.5,50.5C 63.3084,50.5086 64.9751,50.0086 66.5,49C 69.6142,44.3839 73.9475,42.2172 79.5,42.5C 71.6465,47.3508 63.8132,52.3508 56,57.5C 55.6667,65.8333 55.3333,74.1667 55,82.5C 52.5255,83.9858 50.0255,85.3192 47.5,86.5C 45.5,86.5 43.5,86.5 41.5,86.5C 41.5,87.5 41.5,88.5 41.5,89.5C 38.0697,90.8904 34.7363,90.7237 31.5,89C 32.3279,88.0853 33.3279,87.4186 34.5,87C 31.2996,85.3667 28.4663,83.2001 26,80.5C 25.8214,77.4465 25.3214,74.4465 24.5,71.5C 23.7492,72.376 23.2492,73.376 23,74.5C 21.2417,73.5305 20.7417,72.3639 21.5,71C 18.9918,67.9578 15.9918,65.6244 12.5,64C 12.8333,63.6667 13.1667,63.3333 13.5,63C 7.7013,59.3302 3.03463,55.1635 -0.5,50.5C -0.5,41.5 -0.5,32.5 -0.5,23.5 Z"/></g>
<g><path style="opacity:1" fill="#44aa94" d="M 129.5,-0.5 C 134.5,-0.5 139.5,-0.5 144.5,-0.5C 144.5,2.16667 144.5,4.83333 144.5,7.5C 147.167,7.5 149.833,7.5 152.5,7.5C 152.5,10.1667 152.5,12.8333 152.5,15.5C 155.167,15.5 157.833,15.5 160.5,15.5C 160.5,18.1667 160.5,20.8333 160.5,23.5C 161.552,23.3505 162.552,23.5172 163.5,24C 166.121,28.4065 167.621,28.2398 168,23.5C 168.497,26.146 168.664,28.8127 168.5,31.5C 171.212,31.7375 173.712,31.7375 176,31.5C 176.497,34.146 176.664,36.8127 176.5,39.5C 179.167,39.5 181.833,39.5 184.5,39.5C 184.5,42.1667 184.5,44.8333 184.5,47.5C 187.167,47.5 189.833,47.5 192.5,47.5C 192.5,50.1667 192.5,52.8333 192.5,55.5C 194.833,55.5 197.167,55.5 199.5,55.5C 199.238,56.9778 199.571,58.3112 200.5,59.5C 201.981,60.4803 203.315,61.647 204.5,63C 205.784,63.6838 206.951,63.5171 208,62.5C 208.498,65.4816 208.665,68.4816 208.5,71.5C 211.119,71.7683 213.619,71.435 216,70.5C 216.498,73.4816 216.665,76.4816 216.5,79.5C 218.792,79.2436 220.959,79.5769 223,80.5C 223.232,79.2625 223.732,78.2625 224.5,77.5C 224.5,88.8333 224.5,100.167 224.5,111.5C 223.5,111.5 222.5,111.5 221.5,111.5C 221.5,108.833 221.5,106.167 221.5,103.5C 220.5,103.5 219.5,103.5 218.5,103.5C 218.5,100.833 218.5,98.1667 218.5,95.5C 217.5,95.5 216.5,95.5 215.5,95.5C 215.813,98.2469 215.48,100.914 214.5,103.5C 213.676,100.215 213.176,96.8818 213,93.5C 209.217,88.8614 207.05,89.528 206.5,95.5C 205.52,92.9135 205.187,90.2469 205.5,87.5C 204.5,87.5 203.5,87.5 202.5,87.5C 202.5,84.8333 202.5,82.1667 202.5,79.5C 201.5,79.5 200.5,79.5 199.5,79.5C 199.813,82.2469 199.48,84.9135 198.5,87.5C 197.676,84.2152 197.176,80.8818 197,77.5C 195.758,76.1279 194.258,75.1279 192.5,74.5C 191.52,77.0865 191.187,79.7531 191.5,82.5C 189.319,82.7163 187.653,81.883 186.5,80C 187.448,79.5172 188.448,79.3505 189.5,79.5C 189.665,76.1501 189.498,72.8168 189,69.5C 185.217,64.8614 183.05,65.528 182.5,71.5C 181.676,68.2152 181.176,64.8818 181,61.5C 179.172,59.9186 177.172,58.5853 175,57.5C 171.584,65.0001 170.751,72.8334 172.5,81C 171.99,82.8261 171.156,82.9928 170,81.5C 169.333,73.5 169.333,65.5 170,57.5C 171.825,55.5204 172.659,53.1871 172.5,50.5C 168.507,48.7485 164.174,47.7485 159.5,47.5C 159.5,46.5 159.5,45.5 159.5,44.5C 157.167,44.5 154.833,44.5 152.5,44.5C 152.281,43.325 152.614,42.325 153.5,41.5C 157.12,40.3994 159.12,38.066 159.5,34.5C 153.102,34.7673 147.102,33.7673 141.5,31.5C 141.665,28.1501 141.498,24.8168 141,21.5C 137.217,16.8614 135.05,17.528 134.5,23.5C 133.52,20.9135 133.187,18.2469 133.5,15.5C 132.5,15.5 131.5,15.5 130.5,15.5C 130.167,10.1667 129.833,4.83333 129.5,-0.5 Z"/></g>
<g><path style="opacity:1" fill="#21806c" d="M -0.5,50.5 C 3.03463,55.1635 7.7013,59.3302 13.5,63C 13.1667,63.3333 12.8333,63.6667 12.5,64C 15.9918,65.6244 18.9918,67.9578 21.5,71C 20.7417,72.3639 21.2417,73.5305 23,74.5C 23.2492,73.376 23.7492,72.376 24.5,71.5C 25.3214,74.4465 25.8214,77.4465 26,80.5C 28.4663,83.2001 31.2996,85.3667 34.5,87C 33.3279,87.4186 32.3279,88.0853 31.5,89C 34.7363,90.7237 38.0697,90.8904 41.5,89.5C 41.5,88.5 41.5,87.5 41.5,86.5C 43.5,86.5 45.5,86.5 47.5,86.5C 44.7598,88.5595 41.7598,90.2262 38.5,91.5C 37.1779,91.33 36.0113,91.6634 35,92.5C 34.8325,104.181 34.3325,115.848 33.5,127.5C 32.52,124.914 32.1866,122.247 32.5,119.5C 30.1667,119.5 27.8333,119.5 25.5,119.5C 25.8204,116.102 25.487,112.768 24.5,109.5C 23.4763,110.853 22.143,111.52 20.5,111.5C 20.5,108.833 20.5,106.167 20.5,103.5C 18.857,103.52 17.5237,102.853 16.5,101.5C 15.4763,102.853 14.143,103.52 12.5,103.5C 12.5,100.833 12.5,98.1667 12.5,95.5C 9.83333,95.5 7.16667,95.5 4.5,95.5C 4.5,92.8333 4.5,90.1667 4.5,87.5C 2.67761,87.1692 1.01094,86.5025 -0.5,85.5C -0.5,73.8333 -0.5,62.1667 -0.5,50.5 Z"/></g>
<g><path style="opacity:1" fill="#40a690" d="M 103.5,-0.5 C 112.167,-0.5 120.833,-0.5 129.5,-0.5C 129.833,4.83333 130.167,10.1667 130.5,15.5C 131.5,15.5 132.5,15.5 133.5,15.5C 133.187,18.2469 133.52,20.9135 134.5,23.5C 135.05,17.528 137.217,16.8614 141,21.5C 141.498,24.8168 141.665,28.1501 141.5,31.5C 147.102,33.7673 153.102,34.7673 159.5,34.5C 159.12,38.066 157.12,40.3994 153.5,41.5C 152.614,42.325 152.281,43.325 152.5,44.5C 154.833,44.5 157.167,44.5 159.5,44.5C 159.5,45.5 159.5,46.5 159.5,47.5C 164.174,47.7485 168.507,48.7485 172.5,50.5C 172.659,53.1871 171.825,55.5204 170,57.5C 169.333,65.5 169.333,73.5 170,81.5C 171.156,82.9928 171.99,82.8261 172.5,81C 170.751,72.8334 171.584,65.0001 175,57.5C 177.172,58.5853 179.172,59.9186 181,61.5C 181.176,64.8818 181.676,68.2152 182.5,71.5C 183.05,65.528 185.217,64.8614 189,69.5C 189.498,72.8168 189.665,76.1501 189.5,79.5C 188.448,79.3505 187.448,79.5172 186.5,80C 187.653,81.883 189.319,82.7163 191.5,82.5C 191.187,79.7531 191.52,77.0865 192.5,74.5C 194.258,75.1279 195.758,76.1279 197,77.5C 197.176,80.8818 197.676,84.2152 198.5,87.5C 199.48,84.9135 199.813,82.2469 199.5,79.5C 200.5,79.5 201.5,79.5 202.5,79.5C 202.5,82.1667 202.5,84.8333 202.5,87.5C 203.5,87.5 204.5,87.5 205.5,87.5C 205.187,90.2469 205.52,92.9135 206.5,95.5C 207.05,89.528 209.217,88.8614 213,93.5C 213.176,96.8818 213.676,100.215 214.5,103.5C 215.48,100.914 215.813,98.2469 215.5,95.5C 216.5,95.5 217.5,95.5 218.5,95.5C 218.5,98.1667 218.5,100.833 218.5,103.5C 219.5,103.5 220.5,103.5 221.5,103.5C 221.5,106.167 221.5,108.833 221.5,111.5C 222.5,111.5 223.5,111.5 224.5,111.5C 224.5,120.5 224.5,129.5 224.5,138.5C 223.835,136.631 223.169,134.631 222.5,132.5C 219.059,131.393 217.059,129.06 216.5,125.5C 211.906,123.906 208.573,120.906 206.5,116.5C 203.059,115.393 201.059,113.06 200.5,109.5C 196.135,108.469 193.469,105.802 192.5,101.5C 192.104,105.263 191.104,108.597 189.5,111.5C 189.666,105.158 189.5,98.8246 189,92.5C 187.556,90.8446 185.722,90.178 183.5,90.5C 178.557,88.0622 173.723,85.3955 169,82.5C 168.829,74.9885 168.329,67.6552 167.5,60.5C 158.01,53.2552 148.344,46.2552 138.5,39.5C 137.358,36.4582 135.358,34.1249 132.5,32.5C 133.376,31.7492 134.376,31.2492 135.5,31C 133.093,28.7152 130.593,26.5486 128,24.5C 127.751,25.624 127.251,26.624 126.5,27.5C 122.187,25.026 122.52,23.526 127.5,23C 125.093,20.7152 122.593,18.5486 120,16.5C 119.751,17.624 119.251,18.624 118.5,19.5C 114.187,17.026 114.52,15.526 119.5,15C 114.047,9.89725 108.714,4.73059 103.5,-0.5 Z"/></g>
<g><path style="opacity:1" fill="#399d87" d="M 151.5,56.5 C 155.683,58.0875 159.35,60.4208 162.5,63.5C 162.5,65.5 162.5,67.5 162.5,69.5C 158.09,70.3774 154.757,68.8774 152.5,65C 149.833,64.3333 147.167,64.3333 144.5,65C 143.944,65.3826 143.611,65.8826 143.5,66.5C 142.542,66.9528 141.708,67.6195 141,68.5C 138.914,75.6773 141.414,80.0106 148.5,81.5C 150.355,81.6598 151.688,80.9931 152.5,79.5C 152.833,79.5 153.167,79.5 153.5,79.5C 154.812,78.8549 155.812,77.8549 156.5,76.5C 158.396,75.5344 160.396,75.2011 162.5,75.5C 162.5,76.8333 162.5,78.1667 162.5,79.5C 161.371,81.6282 161.204,83.9615 162,86.5C 165.792,87.4539 167.958,89.7872 168.5,93.5C 166.473,93.6621 164.473,93.4955 162.5,93C 161.914,90.7202 161.08,88.5535 160,86.5C 157.282,87.3468 154.616,88.3468 152,89.5C 149.695,89.421 147.195,89.2543 144.5,89C 143.62,87.6439 143.286,86.1439 143.5,84.5C 138.13,84.3921 132.797,84.7255 127.5,85.5C 126.476,81.7767 125.143,81.9433 123.5,86C 121.866,86.4935 120.199,86.6602 118.5,86.5C 117.508,86.6716 116.842,86.3382 116.5,85.5C 116.49,74.5964 116.657,63.5964 117,52.5C 120.59,49.3639 124.09,49.1972 127.5,52C 125.57,55.0526 123.07,57.5526 120,59.5C 119.51,60.7932 119.343,62.1266 119.5,63.5C 120.833,63.5 122.167,63.5 123.5,63.5C 123.351,62.448 123.517,61.448 124,60.5C 126.235,58.3955 128.402,56.2288 130.5,54C 129.991,51.3069 128.991,48.8069 127.5,46.5C 130.167,43.8333 132.833,43.8333 135.5,46.5C 136.453,48.9082 137.787,51.0749 139.5,53C 143.594,54.0638 147.594,55.2305 151.5,56.5 Z"/></g>
<g><path style="opacity:1" fill="#1c7965" d="M -0.5,85.5 C 1.01094,86.5025 2.67761,87.1692 4.5,87.5C 4.5,90.1667 4.5,92.8333 4.5,95.5C 7.16667,95.5 9.83333,95.5 12.5,95.5C 12.5,98.1667 12.5,100.833 12.5,103.5C 14.143,103.52 15.4763,102.853 16.5,101.5C 17.5237,102.853 18.857,103.52 20.5,103.5C 20.5,106.167 20.5,108.833 20.5,111.5C 22.143,111.52 23.4763,110.853 24.5,109.5C 25.487,112.768 25.8204,116.102 25.5,119.5C 27.8333,119.5 30.1667,119.5 32.5,119.5C 32.1866,122.247 32.52,124.914 33.5,127.5C 34.3325,115.848 34.8325,104.181 35,92.5C 36.0113,91.6634 37.1779,91.33 38.5,91.5C 37.828,92.2674 36.9947,92.9341 36,93.5C 35.3333,106.5 35.3333,119.5 36,132.5C 40.7399,136.124 45.9066,139.124 51.5,141.5C 51.6662,147.509 51.4995,153.509 51,159.5C 49.4818,163.165 48.8151,166.831 49,170.5C 47.9568,168.299 47.1235,165.966 46.5,163.5C 44.6187,161.266 42.2853,159.933 39.5,159.5C 38.539,155.206 35.8723,152.539 31.5,151.5C 31.762,150.022 31.4287,148.689 30.5,147.5C 28.179,146.437 27.179,144.937 27.5,143C 24.3075,137.863 22.8075,138.363 23,144.5C 22.502,141.518 22.3354,138.518 22.5,135.5C 20.1667,135.5 17.8333,135.5 15.5,135.5C 14.539,131.206 11.8723,128.539 7.5,127.5C 7.76202,126.022 7.42869,124.689 6.5,123.5C 3.65689,122.079 2.32356,120.079 2.5,117.5C 1.64314,116.575 0.643141,115.908 -0.5,115.5C -0.5,105.5 -0.5,95.5 -0.5,85.5 Z"/></g>
<g><path style="opacity:1" fill="#e2faf5" d="M 167.5,60.5 C 168.329,67.6552 168.829,74.9885 169,82.5C 173.723,85.3955 178.557,88.0622 183.5,90.5C 183.833,91.1667 184.167,91.8333 184.5,92.5C 183.167,92.5 181.833,92.5 180.5,92.5C 180.5,93.5 180.5,94.5 180.5,95.5C 179.833,95.5 179.167,95.5 178.5,95.5C 175.516,92.6742 172.183,90.3409 168.5,88.5C 172.527,88.7192 173.194,87.5525 170.5,85C 169.552,84.5172 168.552,84.3505 167.5,84.5C 167.5,76.5 167.5,68.5 167.5,60.5 Z"/></g>
<g><path style="opacity:1" fill="#399f89" d="M 224.5,138.5 C 224.5,145.5 224.5,152.5 224.5,159.5C 223.719,161.628 222.719,161.795 221.5,160C 218.183,159.502 214.85,159.335 211.5,159.5C 211.5,156.833 211.5,154.167 211.5,151.5C 210.167,151.5 208.833,151.5 207.5,151.5C 207.5,148.833 207.5,146.167 207.5,143.5C 200.825,143.666 194.158,143.5 187.5,143C 188.563,141.812 189.897,141.312 191.5,141.5C 191.5,139.833 191.5,138.167 191.5,136.5C 190.325,136.719 189.325,136.386 188.5,135.5C 189.469,127.556 189.802,119.556 189.5,111.5C 191.104,108.597 192.104,105.263 192.5,101.5C 193.469,105.802 196.135,108.469 200.5,109.5C 201.059,113.06 203.059,115.393 206.5,116.5C 208.573,120.906 211.906,123.906 216.5,125.5C 217.059,129.06 219.059,131.393 222.5,132.5C 223.169,134.631 223.835,136.631 224.5,138.5 Z"/></g>
<g><path style="opacity:1" fill="#389d86" d="M 178.5,95.5 C 179.167,95.5 179.833,95.5 180.5,95.5C 180.5,96.1667 180.833,96.5 181.5,96.5C 181.5,105.5 181.5,114.5 181.5,123.5C 180.209,123.263 179.209,123.596 178.5,124.5C 175.366,123.099 172.366,121.432 169.5,119.5C 168.365,117.293 167.699,114.96 167.5,112.5C 167.586,111.504 167.252,110.671 166.5,110C 163.917,108.542 161.417,107.042 159,105.5C 157.326,106.676 155.826,108.01 154.5,109.5C 153.667,108.5 152.833,107.5 152,106.5C 149.253,108.454 149.086,110.454 151.5,112.5C 151,112.833 150.5,113.167 150,113.5C 148.7,112.293 147.2,111.626 145.5,111.5C 145.199,107.753 145.866,104.253 147.5,101C 147.029,91.2351 150.696,89.4018 158.5,95.5C 159.251,94.624 159.751,93.624 160,92.5C 160.374,93.4162 160.874,94.2496 161.5,95C 163.577,95.1922 165.577,95.6922 167.5,96.5C 165.028,97.8962 162.362,98.7296 159.5,99C 158.424,100.726 158.257,102.559 159,104.5C 163.079,103.371 167.245,103.204 171.5,104C 170.289,105.113 170.289,106.28 171.5,107.5C 173.323,108.491 174.823,109.824 176,111.5C 176.498,108.183 176.665,104.85 176.5,101.5C 172.299,101.558 171.799,100.558 175,98.5C 175.333,99.1667 175.667,99.8333 176,100.5C 176.05,98.256 176.883,96.5893 178.5,95.5 Z"/></g>
<g><path style="opacity:1" fill="#eef9f8" d="M 116.5,43.5 C 121.449,40.7773 126.615,38.4439 132,36.5C 134.282,37.2898 136.448,38.2898 138.5,39.5C 148.344,46.2552 158.01,53.2552 167.5,60.5C 167.5,68.5 167.5,76.5 167.5,84.5C 168.552,84.3505 169.552,84.5172 170.5,85C 173.194,87.5525 172.527,88.7192 168.5,88.5C 167.29,88.0679 166.29,87.4013 165.5,86.5C 164.986,84.6336 164.32,82.8003 163.5,81C 164.876,78.4503 164.543,76.117 162.5,74C 164.909,70.2187 164.909,66.7187 162.5,63.5C 159.35,60.4208 155.683,58.0875 151.5,56.5C 145.151,51.5018 138.485,46.8351 131.5,42.5C 126.167,45.5 120.833,48.5 115.5,51.5C 115.167,57.1667 114.833,62.8333 114.5,68.5C 114.504,74.5415 115.171,80.2082 116.5,85.5C 116.842,86.3382 117.508,86.6716 118.5,86.5C 122.602,89.3921 126.935,92.0588 131.5,94.5C 138.639,90.6088 143.306,92.4421 145.5,100C 144.428,108.034 140.095,110.701 132.5,108C 130.13,104.892 128.13,101.559 126.5,98C 121.757,94.9617 116.757,92.4617 111.5,90.5C 110.833,89.5 110.167,88.5 109.5,87.5C 109.832,75.4815 109.499,63.4815 108.5,51.5C 103.117,48.2825 97.6166,45.2825 92,42.5C 88.3399,44.4076 84.8399,46.4076 81.5,48.5C 80.8334,57.0093 80.1667,65.6759 79.5,74.5C 77.7282,73.7303 76.7282,72.3969 76.5,70.5C 76.9702,68.2262 77.9702,66.2262 79.5,64.5C 78.689,63.7836 78.0223,62.9503 77.5,62C 77.5767,59.0026 77.91,56.0026 78.5,53C 77.1821,51.3702 75.8488,51.2035 74.5,52.5C 70.5275,54.8217 66.5275,57.155 62.5,59.5C 61.1667,67.5 61.1667,75.5 62.5,83.5C 66.8333,86.1667 71.1667,88.8333 75.5,91.5C 80.086,88.624 84.586,85.624 89,82.5C 89.4992,77.8452 89.6658,73.1785 89.5,68.5C 90.9179,66.6921 92.9179,66.0254 95.5,66.5C 95.6662,72.5092 95.4995,78.5092 95,84.5C 92.9633,86.7059 90.7966,88.7059 88.5,90.5C 84.9683,91.8539 81.8016,93.8539 79,96.5C 78.3333,101.5 78.3333,106.5 79,111.5C 81.0693,113.085 83.236,114.419 85.5,115.5C 87.1696,118.002 89.3363,120.002 92,121.5C 92.3333,125.833 92.6667,130.167 93,134.5C 93.7172,133.956 94.2172,133.289 94.5,132.5C 99.4087,129.605 104.075,126.271 108.5,122.5C 109.655,119.554 109.821,116.554 109,113.5C 108.005,112.934 107.172,112.267 106.5,111.5C 107.833,111.5 109.167,111.5 110.5,111.5C 110.52,132.861 110.52,154.194 110.5,175.5C 111.5,175.5 112.5,175.5 113.5,175.5C 113.178,169.642 113.511,163.975 114.5,158.5C 114.178,164.358 114.511,170.025 115.5,175.5C 120.806,178.488 126.139,181.488 131.5,184.5C 142.5,177.833 153.5,171.167 164.5,164.5C 165.452,162.955 165.785,161.288 165.5,159.5C 165.169,152.137 165.503,144.803 166.5,137.5C 170.779,136.027 174.779,134.027 178.5,131.5C 174.833,129.333 171.167,127.167 167.5,125C 164.167,125.333 160.833,125.667 157.5,126C 151.456,123.068 149.956,118.568 153,112.5C 157.831,108.547 162.665,108.547 167.5,112.5C 167.699,114.96 168.365,117.293 169.5,119.5C 172.366,121.432 175.366,123.099 178.5,124.5C 179.482,125.141 180.482,125.807 181.5,126.5C 182.823,116.341 182.823,106.341 181.5,96.5C 180.833,96.5 180.5,96.1667 180.5,95.5C 180.5,94.5 180.5,93.5 180.5,92.5C 181.833,92.5 183.167,92.5 184.5,92.5C 185.822,92.33 186.989,92.6634 188,93.5C 188.667,106.5 188.667,119.5 188,132.5C 183.065,135.413 178.231,138.413 173.5,141.5C 171.693,149.104 170.86,157.104 171,165.5C 168.656,168.011 166.156,170.344 163.5,172.5C 154.9,177.11 146.566,182.11 138.5,187.5C 135.792,189.353 132.792,190.353 129.5,190.5C 123.958,186.808 118.124,183.474 112,180.5C 106.103,183.532 100.269,186.699 94.5,190C 92.4546,190.49 90.4546,190.323 88.5,189.5C 76.6464,181.982 64.813,174.315 53,166.5C 52.8294,157.99 52.3294,149.657 51.5,141.5C 45.9066,139.124 40.7399,136.124 36,132.5C 35.3333,119.5 35.3333,106.5 36,93.5C 36.9947,92.9341 37.828,92.2674 38.5,91.5C 41.7598,90.2262 44.7598,88.5595 47.5,86.5C 50.0255,85.3192 52.5255,83.9858 55,82.5C 55.3333,74.1667 55.6667,65.8333 56,57.5C 63.8132,52.3508 71.6465,47.3508 79.5,42.5C 83.5964,40.3686 87.7631,38.3686 92,36.5C 98.7779,39.5556 105.445,42.889 112,46.5C 113.981,46.1015 115.481,45.1015 116.5,43.5 Z"/></g>
<g><path style="opacity:1" fill="#fdfafe" d="M 41.5,96.5 C 41.5,100.167 41.5,103.833 41.5,107.5C 41.5,109.5 41.5,111.5 41.5,113.5C 41.5,118.167 41.5,122.833 41.5,127.5C 40.8501,127.804 40.1835,128.137 39.5,128.5C 38.1207,120.661 37.7873,112.828 38.5,105C 38.4572,101.832 37.7905,98.8319 36.5,96C 37.6526,94.117 39.3193,93.2837 41.5,93.5C 41.5,94.5 41.5,95.5 41.5,96.5 Z"/></g>
<g><path style="opacity:1" fill="#2b927a" d="M 109.5,87.5 C 110.167,88.5 110.833,89.5 111.5,90.5C 112.747,92.178 114.414,93.5113 116.5,94.5C 114.254,96.7631 111.587,98.0964 108.5,98.5C 108.5,97.5 108.5,96.5 108.5,95.5C 106.396,95.2011 104.396,95.5344 102.5,96.5C 102.709,97.086 103.043,97.586 103.5,98C 106.508,98.5181 108.841,100.018 110.5,102.5C 111.086,102.291 111.586,101.957 112,101.5C 114.235,103.202 116.735,104.202 119.5,104.5C 119.489,107.822 121.155,109.489 124.5,109.5C 126.58,109.314 128.08,108.314 129,106.5C 129.948,108.57 131.448,110.07 133.5,111C 131.527,111.495 129.527,111.662 127.5,111.5C 127.238,112.978 127.571,114.311 128.5,115.5C 129.981,116.48 131.315,117.647 132.5,119C 131.556,121.719 131.223,124.552 131.5,127.5C 129.925,124.471 128.759,121.138 128,117.5C 127.5,126.16 127.334,134.827 127.5,143.5C 126.5,143.5 125.5,143.5 124.5,143.5C 125.833,132.833 125.833,122.167 124.5,111.5C 123.167,111.5 121.833,111.5 120.5,111.5C 120.5,122.167 120.5,132.833 120.5,143.5C 119.167,143.5 117.833,143.5 116.5,143.5C 116.832,131.814 116.499,120.148 115.5,108.5C 113.827,106.914 111.827,106.247 109.5,106.5C 108.508,106.672 107.842,106.338 107.5,105.5C 106.641,102.548 104.641,100.715 101.5,100C 102.34,98.3335 101.84,98.1669 100,99.5C 98.6658,98.1221 98.4991,96.7887 99.5,95.5C 99.8586,93.5154 100.692,92.8487 102,93.5C 102.499,88.8452 102.666,84.1785 102.5,79.5C 103.5,79.5 104.5,79.5 105.5,79.5C 105.466,71.1715 105.133,63.0049 104.5,55C 105.025,54.3076 105.692,53.8076 106.5,53.5C 107.887,64.945 108.887,76.2783 109.5,87.5 Z"/></g>
<g><path style="opacity:1" fill="#ebfcfc" d="M 107.5,105.5 C 107.842,106.338 108.508,106.672 109.5,106.5C 110.833,107.933 112.333,109.267 114,110.5C 114.5,122.495 114.667,134.495 114.5,146.5C 113.5,146.5 112.5,146.5 111.5,146.5C 113.532,134.973 114.032,123.306 113,111.5C 110.573,110.219 108.073,109.219 105.5,108.5C 105.5,109.5 105.5,110.5 105.5,111.5C 102.357,109.758 99.3566,107.758 96.5,105.5C 97.5,104.167 98.5,102.833 99.5,101.5C 102.22,102.86 104.886,104.193 107.5,105.5 Z"/></g>
<g><path style="opacity:1" fill="#fbfbfe" d="M 114.5,146.5 C 114.5,148.167 114.5,149.833 114.5,151.5C 119.5,151.5 124.5,151.5 129.5,151.5C 130.5,151.5 131.5,151.5 132.5,151.5C 131.916,154.285 132.916,155.952 135.5,156.5C 135.937,158.074 136.937,159.241 138.5,160C 136.153,160.334 133.819,160.167 131.5,159.5C 130.833,158.833 130.167,158.167 129.5,157.5C 127.19,156.836 124.69,156.503 122,156.5C 119.071,156.525 116.571,157.191 114.5,158.5C 113.511,163.975 113.178,169.642 113.5,175.5C 112.5,175.5 111.5,175.5 110.5,175.5C 110.52,154.194 110.52,132.861 110.5,111.5C 109.167,111.5 107.833,111.5 106.5,111.5C 106.167,111.5 105.833,111.5 105.5,111.5C 105.5,110.5 105.5,109.5 105.5,108.5C 108.073,109.219 110.573,110.219 113,111.5C 114.032,123.306 113.532,134.973 111.5,146.5C 112.5,146.5 113.5,146.5 114.5,146.5 Z"/></g>
<g><path style="opacity:1" fill="#2d8b76" d="M 88.5,90.5 C 88.1961,91.1499 87.8627,91.8165 87.5,92.5C 89.8935,93.3491 92.2269,94.3491 94.5,95.5C 94.8333,95.1667 95.1667,94.8333 95.5,94.5C 91.93,93.8856 91.5966,92.5523 94.5,90.5C 96.4081,92.0395 98.0748,93.7061 99.5,95.5C 98.4991,96.7887 98.6658,98.1221 100,99.5C 101.84,98.1669 102.34,98.3335 101.5,100C 104.641,100.715 106.641,102.548 107.5,105.5C 104.886,104.193 102.22,102.86 99.5,101.5C 98.5,102.833 97.5,104.167 96.5,105.5C 99.3566,107.758 102.357,109.758 105.5,111.5C 105.833,111.5 106.167,111.5 106.5,111.5C 107.172,112.267 108.005,112.934 109,113.5C 109.821,116.554 109.655,119.554 108.5,122.5C 104.075,126.271 99.4087,129.605 94.5,132.5C 93.7332,128.585 93.2332,124.585 93,120.5C 90.8723,118.192 88.3723,116.526 85.5,115.5C 83.236,114.419 81.0693,113.085 79,111.5C 78.3333,106.5 78.3333,101.5 79,96.5C 81.8016,93.8539 84.9683,91.8539 88.5,90.5 Z"/></g>
<g><path style="opacity:1" fill="#ecf9fa" d="M 41.5,113.5 C 41.5,111.5 41.5,109.5 41.5,107.5C 44.6963,106.071 47.6963,104.405 50.5,102.5C 54.6455,100.707 56.4788,102.041 56,106.5C 51.3433,109.245 46.51,111.579 41.5,113.5 Z"/></g>
<g><path style="opacity:1" fill="#6da496" d="M 181.5,96.5 C 182.823,106.341 182.823,116.341 181.5,126.5C 180.482,125.807 179.482,125.141 178.5,124.5C 179.209,123.596 180.209,123.263 181.5,123.5C 181.5,114.5 181.5,105.5 181.5,96.5 Z"/></g>
<g><path style="opacity:1" fill="#288670" d="M 62.5,116.5 C 59.1083,116.717 56.275,118.051 54,120.5C 52.0936,117.644 52.927,115.977 56.5,115.5C 56.5,114.167 56.5,112.833 56.5,111.5C 50.3588,111.899 50.0254,110.899 55.5,108.5C 57.578,110.986 60.2447,111.986 63.5,111.5C 63.6653,107.818 63.4986,104.152 63,100.5C 62.51,101.793 62.3433,103.127 62.5,104.5C 59.2027,104.329 58.8694,104.995 61.5,106.5C 60.7261,107.711 59.8928,107.711 59,106.5C 57.4424,104.231 57.2757,101.898 58.5,99.5C 59.3957,100.506 60.0623,100.506 60.5,99.5C 57.5488,98.7764 54.5488,98.9431 51.5,100C 50.7476,100.671 50.4142,101.504 50.5,102.5C 47.6963,104.405 44.6963,106.071 41.5,107.5C 41.5,103.833 41.5,100.167 41.5,96.5C 47.2981,93.7674 52.9647,90.7674 58.5,87.5C 62.9684,90.1367 67.3017,92.97 71.5,96C 75.3991,106.191 72.3991,113.024 62.5,116.5 Z"/></g>
<g><path style="opacity:1" fill="#e7f9f8" d="M 143.5,66.5 C 143.5,67.5 143.5,68.5 143.5,69.5C 146.059,69.1984 148.393,69.5318 150.5,70.5C 151.649,70.7911 152.316,71.6244 152.5,73C 152.259,74.9836 151.592,76.8169 150.5,78.5C 150.957,79.2975 151.624,79.6309 152.5,79.5C 151.688,80.9931 150.355,81.6598 148.5,81.5C 141.414,80.0106 138.914,75.6773 141,68.5C 141.708,67.6195 142.542,66.9528 143.5,66.5 Z"/></g>
<g><path style="opacity:1" fill="#529a87" d="M 150.5,70.5 C 152.268,74.4109 150.935,76.0776 146.5,75.5C 146.5,73.8333 146.5,72.1667 146.5,70.5C 147.833,70.5 149.167,70.5 150.5,70.5 Z"/></g>
<g><path style="opacity:1" fill="#dbf4f3" d="M 81.5,48.5 C 81.5,55.8333 81.5,63.1667 81.5,70.5C 81.5,72.1667 81.5,73.8333 81.5,75.5C 79.5,75.5 77.5,75.5 75.5,75.5C 75.8254,67.6484 75.492,59.9818 74.5,52.5C 75.8488,51.2035 77.1821,51.3702 78.5,53C 77.91,56.0026 77.5767,59.0026 77.5,62C 78.0223,62.9503 78.689,63.7836 79.5,64.5C 77.9702,66.2262 76.9702,68.2262 76.5,70.5C 76.7282,72.3969 77.7282,73.7303 79.5,74.5C 80.1667,65.6759 80.8334,57.0093 81.5,48.5 Z"/></g>
<g><path style="opacity:1" fill="#e7fbfa" d="M 162.5,63.5 C 164.909,66.7187 164.909,70.2187 162.5,74C 164.543,76.117 164.876,78.4503 163.5,81C 164.32,82.8003 164.986,84.6336 165.5,86.5C 164.504,86.5858 163.671,86.2524 163,85.5C 162.505,83.5273 162.338,81.5273 162.5,79.5C 162.5,78.1667 162.5,76.8333 162.5,75.5C 160.396,75.2011 158.396,75.5344 156.5,76.5C 155.812,77.8549 154.812,78.8549 153.5,79.5C 154.385,76.4857 155.552,73.819 157,71.5C 153.389,66.912 148.889,65.2453 143.5,66.5C 143.611,65.8826 143.944,65.3826 144.5,65C 147.167,64.3333 149.833,64.3333 152.5,65C 154.757,68.8774 158.09,70.3774 162.5,69.5C 162.5,67.5 162.5,65.5 162.5,63.5 Z"/></g>
<g><path style="opacity:1" fill="#fcf7fd" d="M 153.5,79.5 C 153.167,79.5 152.833,79.5 152.5,79.5C 151.624,79.6309 150.957,79.2975 150.5,78.5C 151.592,76.8169 152.259,74.9836 152.5,73C 152.316,71.6244 151.649,70.7911 150.5,70.5C 148.393,69.5318 146.059,69.1984 143.5,69.5C 143.5,68.5 143.5,67.5 143.5,66.5C 148.889,65.2453 153.389,66.912 157,71.5C 155.552,73.819 154.385,76.4857 153.5,79.5 Z"/></g>
<g><path style="opacity:1" fill="#318d78" d="M 74.5,52.5 C 75.492,59.9818 75.8254,67.6484 75.5,75.5C 77.5,75.5 79.5,75.5 81.5,75.5C 81.5,73.8333 81.5,72.1667 81.5,70.5C 82.6879,71.6843 83.8545,71.6843 85,70.5C 85.498,73.4816 85.6646,76.4816 85.5,79.5C 86.5,79.5 87.5,79.5 88.5,79.5C 88.185,75.6286 88.5184,71.9619 89.5,68.5C 89.6658,73.1785 89.4992,77.8452 89,82.5C 84.586,85.624 80.086,88.624 75.5,91.5C 71.1667,88.8333 66.8333,86.1667 62.5,83.5C 61.1667,75.5 61.1667,67.5 62.5,59.5C 66.5275,57.155 70.5275,54.8217 74.5,52.5 Z"/></g>
<g><path style="opacity:1" fill="#379781" d="M 109.5,87.5 C 108.887,76.2783 107.887,64.945 106.5,53.5C 105.692,53.8076 105.025,54.3076 104.5,55C 105.133,63.0049 105.466,71.1715 105.5,79.5C 104.5,79.5 103.5,79.5 102.5,79.5C 102.666,84.1785 102.499,88.8452 102,93.5C 100.692,92.8487 99.8586,93.5154 99.5,95.5C 98.0748,93.7061 96.4081,92.0395 94.5,90.5C 91.5966,92.5523 91.93,93.8856 95.5,94.5C 95.1667,94.8333 94.8333,95.1667 94.5,95.5C 92.2269,94.3491 89.8935,93.3491 87.5,92.5C 87.8627,91.8165 88.1961,91.1499 88.5,90.5C 90.7966,88.7059 92.9633,86.7059 95,84.5C 95.4995,78.5092 95.6662,72.5092 95.5,66.5C 92.9179,66.0254 90.9179,66.6921 89.5,68.5C 88.5184,71.9619 88.185,75.6286 88.5,79.5C 87.5,79.5 86.5,79.5 85.5,79.5C 85.6646,76.4816 85.498,73.4816 85,70.5C 83.8545,71.6843 82.6879,71.6843 81.5,70.5C 81.5,63.1667 81.5,55.8333 81.5,48.5C 84.8399,46.4076 88.3399,44.4076 92,42.5C 97.6166,45.2825 103.117,48.2825 108.5,51.5C 109.499,63.4815 109.832,75.4815 109.5,87.5 Z"/></g>
<g><path style="opacity:1" fill="#4e9c8b" d="M 151.5,56.5 C 147.594,55.2305 143.594,54.0638 139.5,53C 137.787,51.0749 136.453,48.9082 135.5,46.5C 132.833,43.8333 130.167,43.8333 127.5,46.5C 128.991,48.8069 129.991,51.3069 130.5,54C 128.402,56.2288 126.235,58.3955 124,60.5C 123.517,61.448 123.351,62.448 123.5,63.5C 122.167,63.5 120.833,63.5 119.5,63.5C 119.343,62.1266 119.51,60.7932 120,59.5C 123.07,57.5526 125.57,55.0526 127.5,52C 124.09,49.1972 120.59,49.3639 117,52.5C 116.657,63.5964 116.49,74.5964 116.5,85.5C 115.171,80.2082 114.504,74.5415 114.5,68.5C 114.833,62.8333 115.167,57.1667 115.5,51.5C 120.833,48.5 126.167,45.5 131.5,42.5C 138.485,46.8351 145.151,51.5018 151.5,56.5 Z"/></g>
<g><path style="opacity:1" fill="#4d997f" d="M 158.5,114.5 C 161.997,114.995 162.997,116.828 161.5,120C 157.537,120.118 156.537,118.284 158.5,114.5 Z"/></g>
<g><path style="opacity:1" fill="#177360" d="M -0.5,115.5 C 0.643141,115.908 1.64314,116.575 2.5,117.5C 2.32356,120.079 3.65689,122.079 6.5,123.5C 7.42869,124.689 7.76202,126.022 7.5,127.5C 11.8723,128.539 14.539,131.206 15.5,135.5C 17.8333,135.5 20.1667,135.5 22.5,135.5C 22.3354,138.518 22.502,141.518 23,144.5C 22.8075,138.363 24.3075,137.863 27.5,143C 27.179,144.937 28.179,146.437 30.5,147.5C 31.4287,148.689 31.762,150.022 31.5,151.5C 35.8723,152.539 38.539,155.206 39.5,159.5C 42.2853,159.933 44.6187,161.266 46.5,163.5C 47.1235,165.966 47.9568,168.299 49,170.5C 48.8151,166.831 49.4818,163.165 51,159.5C 51.4995,153.509 51.6662,147.509 51.5,141.5C 52.3294,149.657 52.8294,157.99 53,166.5C 64.813,174.315 76.6464,181.982 88.5,189.5C 85.3161,190.643 81.9827,191.309 78.5,191.5C 78.3354,194.518 78.502,197.518 79,200.5C 79.3333,198.833 79.6667,197.167 80,195.5C 82.4425,197.793 84.2759,200.293 85.5,203C 88.6848,204.407 91.6848,205.907 94.5,207.5C 94.3354,210.518 94.502,213.518 95,216.5C 95.3333,214.833 95.6667,213.167 96,211.5C 98.4425,213.793 100.276,216.293 101.5,219C 104.975,219.311 106.975,221.144 107.5,224.5C 97.5,224.5 87.5,224.5 77.5,224.5C 75.6791,220.515 72.6791,217.681 68.5,216C 68.8333,215.667 69.1667,215.333 69.5,215C 67.0427,211.942 64.0427,209.608 60.5,208C 60.8333,207.667 61.1667,207.333 61.5,207C 59.0427,203.942 56.0427,201.608 52.5,200C 53.448,199.517 54.448,199.351 55.5,199.5C 55.719,198.325 55.3857,197.325 54.5,196.5C 49.9076,192.615 45.5743,188.448 41.5,184C 40.1667,184.333 38.8333,184.667 37.5,185C 36.4658,181.293 33.7992,178.626 29.5,177C 28.1285,172.957 25.1285,169.957 20.5,168C 28.1001,168.037 28.4334,166.704 21.5,164C 18.7134,161.974 17.0468,159.64 16.5,157C 10.8757,153.356 5.20899,149.856 -0.5,146.5C -0.5,136.167 -0.5,125.833 -0.5,115.5 Z"/></g>
<g><path style="opacity:1" fill="#36937f" d="M 162.5,79.5 C 162.338,81.5273 162.505,83.5273 163,85.5C 163.671,86.2524 164.504,86.5858 165.5,86.5C 166.29,87.4013 167.29,88.0679 168.5,88.5C 172.183,90.3409 175.516,92.6742 178.5,95.5C 176.883,96.5893 176.05,98.256 176,100.5C 175.667,99.8333 175.333,99.1667 175,98.5C 171.799,100.558 172.299,101.558 176.5,101.5C 176.665,104.85 176.498,108.183 176,111.5C 174.823,109.824 173.323,108.491 171.5,107.5C 170.289,106.28 170.289,105.113 171.5,104C 167.245,103.204 163.079,103.371 159,104.5C 158.257,102.559 158.424,100.726 159.5,99C 162.362,98.7296 165.028,97.8962 167.5,96.5C 165.577,95.6922 163.577,95.1922 161.5,95C 160.874,94.2496 160.374,93.4162 160,92.5C 159.751,93.624 159.251,94.624 158.5,95.5C 150.696,89.4018 147.029,91.2351 147.5,101C 145.866,104.253 145.199,107.753 145.5,111.5C 147.2,111.626 148.7,112.293 150,113.5C 150.5,113.167 151,112.833 151.5,112.5C 149.086,110.454 149.253,108.454 152,106.5C 152.833,107.5 153.667,108.5 154.5,109.5C 155.826,108.01 157.326,106.676 159,105.5C 161.417,107.042 163.917,108.542 166.5,110C 167.252,110.671 167.586,111.504 167.5,112.5C 162.665,108.547 157.831,108.547 153,112.5C 149.956,118.568 151.456,123.068 157.5,126C 160.833,125.667 164.167,125.333 167.5,125C 171.167,127.167 174.833,129.333 178.5,131.5C 174.779,134.027 170.779,136.027 166.5,137.5C 165.503,144.803 165.169,152.137 165.5,159.5C 164.833,154.319 164.167,148.985 163.5,143.5C 162.167,142.167 160.833,142.167 159.5,143.5C 158.533,148.802 157.867,154.135 157.5,159.5C 156.167,159.5 154.833,159.5 153.5,159.5C 155.055,154.052 154.722,148.718 152.5,143.5C 151.167,145.833 149.833,148.167 148.5,150.5C 147.502,148.51 146.502,146.51 145.5,144.5C 146.376,143.749 147.376,143.249 148.5,143C 145.72,140.436 142.72,138.103 139.5,136C 140.188,133.782 139.188,132.282 136.5,131.5C 135.571,130.311 135.238,128.978 135.5,127.5C 134.167,127.5 132.833,127.5 131.5,127.5C 131.223,124.552 131.556,121.719 132.5,119C 131.315,117.647 129.981,116.48 128.5,115.5C 127.571,114.311 127.238,112.978 127.5,111.5C 129.527,111.662 131.527,111.495 133.5,111C 131.448,110.07 129.948,108.57 129,106.5C 128.08,108.314 126.58,109.314 124.5,109.5C 121.155,109.489 119.489,107.822 119.5,104.5C 116.735,104.202 114.235,103.202 112,101.5C 111.586,101.957 111.086,102.291 110.5,102.5C 108.841,100.018 106.508,98.5181 103.5,98C 103.043,97.586 102.709,97.086 102.5,96.5C 104.396,95.5344 106.396,95.2011 108.5,95.5C 108.5,96.5 108.5,97.5 108.5,98.5C 111.587,98.0964 114.254,96.7631 116.5,94.5C 114.414,93.5113 112.747,92.178 111.5,90.5C 116.757,92.4617 121.757,94.9617 126.5,98C 128.13,101.559 130.13,104.892 132.5,108C 140.095,110.701 144.428,108.034 145.5,100C 143.306,92.4421 138.639,90.6088 131.5,94.5C 126.935,92.0588 122.602,89.3921 118.5,86.5C 120.199,86.6602 121.866,86.4935 123.5,86C 125.143,81.9433 126.476,81.7767 127.5,85.5C 132.797,84.7255 138.13,84.3921 143.5,84.5C 143.286,86.1439 143.62,87.6439 144.5,89C 147.195,89.2543 149.695,89.421 152,89.5C 154.616,88.3468 157.282,87.3468 160,86.5C 161.08,88.5535 161.914,90.7202 162.5,93C 164.473,93.4955 166.473,93.6621 168.5,93.5C 167.958,89.7872 165.792,87.4539 162,86.5C 161.204,83.9615 161.371,81.6282 162.5,79.5 Z"/></g>
<g><path style="opacity:1" fill="#379778" d="M 135.5,98.5 C 136.833,98.5 138.167,98.5 139.5,98.5C 139.99,100.948 139.157,102.615 137,103.5C 134.389,102.5 133.889,100.833 135.5,98.5 Z"/></g>
<g><path style="opacity:1" fill="#307264" d="M 85.5,115.5 C 88.3723,116.526 90.8723,118.192 93,120.5C 93.2332,124.585 93.7332,128.585 94.5,132.5C 94.2172,133.289 93.7172,133.956 93,134.5C 92.6667,130.167 92.3333,125.833 92,121.5C 89.3363,120.002 87.1696,118.002 85.5,115.5 Z"/></g>
<g><path style="opacity:1" fill="#78ada1" d="M 107.5,130.5 C 107.56,129.957 107.893,129.624 108.5,129.5C 109.826,144.995 109.826,160.328 108.5,175.5C 108.829,160.324 108.496,145.324 107.5,130.5 Z"/></g>
<g><path style="opacity:1" fill="#359581" d="M 183.5,90.5 C 185.722,90.178 187.556,90.8446 189,92.5C 189.5,98.8246 189.666,105.158 189.5,111.5C 189.802,119.556 189.469,127.556 188.5,135.5C 189.325,136.386 190.325,136.719 191.5,136.5C 191.5,138.167 191.5,139.833 191.5,141.5C 189.897,141.312 188.563,141.812 187.5,143C 194.158,143.5 200.825,143.666 207.5,143.5C 207.5,146.167 207.5,148.833 207.5,151.5C 208.833,151.5 210.167,151.5 211.5,151.5C 211.5,154.167 211.5,156.833 211.5,159.5C 214.85,159.335 218.183,159.502 221.5,160C 222.719,161.795 223.719,161.628 224.5,159.5C 224.5,174.167 224.5,188.833 224.5,203.5C 220.596,202.935 218.596,200.935 218.5,197.5C 217.088,196.194 215.421,195.36 213.5,195C 212.276,192.293 210.443,189.793 208,187.5C 207.667,189.167 207.333,190.833 207,192.5C 206.502,189.518 206.335,186.518 206.5,183.5C 205.448,183.649 204.448,183.483 203.5,183C 200.879,178.594 199.379,178.76 199,183.5C 198.503,180.854 198.336,178.187 198.5,175.5C 195.685,173.907 192.685,172.407 189.5,171C 188.5,170 187.5,169 186.5,168C 187.641,167.259 187.641,166.425 186.5,165.5C 183.41,164.3 180.743,162.467 178.5,160C 179.236,157.979 178.403,156.479 176,155.5C 175.667,151.5 175.333,147.5 175,143.5C 174.829,148.864 174.329,154.198 173.5,159.5C 172.212,153.446 172.212,147.446 173.5,141.5C 178.231,138.413 183.065,135.413 188,132.5C 188.667,119.5 188.667,106.5 188,93.5C 186.989,92.6634 185.822,92.33 184.5,92.5C 184.167,91.8333 183.833,91.1667 183.5,90.5 Z"/></g>
<g><path style="opacity:1" fill="#106d5a" d="M -0.5,146.5 C 5.20899,149.856 10.8757,153.356 16.5,157C 17.0468,159.64 18.7134,161.974 21.5,164C 28.4334,166.704 28.1001,168.037 20.5,168C 25.1285,169.957 28.1285,172.957 29.5,177C 33.7992,178.626 36.4658,181.293 37.5,185C 38.8333,184.667 40.1667,184.333 41.5,184C 45.5743,188.448 49.9076,192.615 54.5,196.5C 55.3857,197.325 55.719,198.325 55.5,199.5C 54.448,199.351 53.448,199.517 52.5,200C 56.0427,201.608 59.0427,203.942 61.5,207C 61.1667,207.333 60.8333,207.667 60.5,208C 64.0427,209.608 67.0427,211.942 69.5,215C 69.1667,215.333 68.8333,215.667 68.5,216C 72.6791,217.681 75.6791,220.515 77.5,224.5C 70.5,224.5 63.5,224.5 56.5,224.5C 54.3926,223.532 52.0593,223.198 49.5,223.5C 48.3656,210.363 47.699,210.363 47.5,223.5C 46.5,223.5 45.5,223.5 44.5,223.5C 44.5,220.833 44.5,218.167 44.5,215.5C 43.5,215.5 42.5,215.5 41.5,215.5C 41.9051,211.952 41.4051,208.619 40,205.5C 38.2458,207.25 36.0792,207.917 33.5,207.5C 33.9051,203.952 33.4051,200.619 32,197.5C 30.951,199.107 29.451,199.773 27.5,199.5C 27.5,196.833 27.5,194.167 27.5,191.5C 24.1667,191.5 20.8333,191.5 17.5,191.5C 17.6646,188.482 17.498,185.482 17,182.5C 11.2424,178.548 5.40905,174.881 -0.5,171.5C -0.5,163.167 -0.5,154.833 -0.5,146.5 Z"/></g>
<g><path style="opacity:1" fill="#24806c" d="M 62.5,116.5 C 60.6729,117.932 59.0063,119.599 57.5,121.5C 58.0256,123.23 59.0256,124.564 60.5,125.5C 65.4709,122.362 70.3042,119.028 75,115.5C 78.6667,118.5 82.3333,121.5 86,124.5C 86.6667,129.5 86.6667,134.5 86,139.5C 82.1174,143.05 77.9507,146.217 73.5,149C 74.7256,150.635 76.059,152.135 77.5,153.5C 87.5186,145.809 97.5186,138.143 107.5,130.5C 108.496,145.324 108.829,160.324 108.5,175.5C 105.15,177.196 101.817,178.863 98.5,180.5C 96.7231,180.214 95.0564,179.547 93.5,178.5C 91.1854,178.799 91.1854,179.632 93.5,181C 91.7412,181.798 90.0745,181.631 88.5,180.5C 90.3581,178.476 92.0248,176.309 93.5,174C 96.9627,173.212 99.9627,171.546 102.5,169C 102.5,167.667 102.5,166.333 102.5,165C 101.789,163.745 100.956,162.579 100,161.5C 99.6667,161.833 99.3333,162.167 99,162.5C 95.0254,159.338 91.0254,159.005 87,161.5C 85,160.167 83,158.833 81,157.5C 80.0497,158.022 79.2164,158.689 78.5,159.5C 75.4968,158.334 72.8302,156.667 70.5,154.5C 68.7267,151.94 66.7267,149.607 64.5,147.5C 62.9114,151.672 63.578,155.338 66.5,158.5C 65.675,159.386 64.675,159.719 63.5,159.5C 63.5,160.5 63.5,161.5 63.5,162.5C 64.8333,162.5 66.1667,162.5 67.5,162.5C 67.5,163.5 67.5,164.5 67.5,165.5C 64.0494,165.554 61.8827,163.887 61,160.5C 60.5005,154.175 60.3338,147.842 60.5,141.5C 63.7537,138.529 67.4204,136.029 71.5,134C 70.7433,132.488 69.7433,131.154 68.5,130C 64.3433,132.078 60.0099,134.245 55.5,136.5C 50.8792,134.296 46.2125,132.296 41.5,130.5C 41.5,129.5 41.5,128.5 41.5,127.5C 41.5,122.833 41.5,118.167 41.5,113.5C 46.51,111.579 51.3433,109.245 56,106.5C 56.4788,102.041 54.6455,100.707 50.5,102.5C 50.4142,101.504 50.7476,100.671 51.5,100C 54.5488,98.9431 57.5488,98.7764 60.5,99.5C 60.0623,100.506 59.3957,100.506 58.5,99.5C 57.2757,101.898 57.4424,104.231 59,106.5C 59.8928,107.711 60.7261,107.711 61.5,106.5C 58.8694,104.995 59.2027,104.329 62.5,104.5C 62.3433,103.127 62.51,101.793 63,100.5C 63.4986,104.152 63.6653,107.818 63.5,111.5C 60.2447,111.986 57.578,110.986 55.5,108.5C 50.0254,110.899 50.3588,111.899 56.5,111.5C 56.5,112.833 56.5,114.167 56.5,115.5C 52.927,115.977 52.0936,117.644 54,120.5C 56.275,118.051 59.1083,116.717 62.5,116.5 Z"/></g>
<g><path style="opacity:1" fill="#eefafa" d="M 131.5,159.5 C 133.819,160.167 136.153,160.334 138.5,160C 136.937,159.241 135.937,158.074 135.5,156.5C 132.916,155.952 131.916,154.285 132.5,151.5C 131.5,151.5 130.5,151.5 129.5,151.5C 134.032,143.905 139.198,143.571 145,150.5C 146.773,157.303 144.273,161.303 137.5,162.5C 134.898,162.533 132.898,161.533 131.5,159.5 Z"/></g>
<g><path style="opacity:1" fill="#30866c" d="M 135.5,156.5 C 133.74,152.43 134.906,151.097 139,152.5C 139.49,153.793 139.657,155.127 139.5,156.5C 138.167,156.5 136.833,156.5 135.5,156.5 Z"/></g>
<g><path style="opacity:1" fill="#247a67" d="M 60.5,141.5 C 60.3338,147.842 60.5005,154.175 61,160.5C 61.8827,163.887 64.0494,165.554 67.5,165.5C 67.5,164.5 67.5,163.5 67.5,162.5C 66.1667,162.5 64.8333,162.5 63.5,162.5C 63.5,161.5 63.5,160.5 63.5,159.5C 64.675,159.719 65.675,159.386 66.5,158.5C 63.578,155.338 62.9114,151.672 64.5,147.5C 66.7267,149.607 68.7267,151.94 70.5,154.5C 72.8302,156.667 75.4968,158.334 78.5,159.5C 79.2164,158.689 80.0497,158.022 81,157.5C 83,158.833 85,160.167 87,161.5C 91.0254,159.005 95.0254,159.338 99,162.5C 99.3333,162.167 99.6667,161.833 100,161.5C 100.956,162.579 101.789,163.745 102.5,165C 102.5,166.333 102.5,167.667 102.5,169C 99.9627,171.546 96.9627,173.212 93.5,174C 92.0248,176.309 90.3581,178.476 88.5,180.5C 90.0745,181.631 91.7412,181.798 93.5,181C 91.1854,179.632 91.1854,178.799 93.5,178.5C 95.0564,179.547 96.7231,180.214 98.5,180.5C 93.7652,185.549 89.0986,185.216 84.5,179.5C 89.1675,175.673 94.0008,172.006 99,168.5C 98.9827,166.432 97.9827,164.766 96,163.5C 89.9896,167.515 83.9896,171.515 78,175.5C 71.7669,171.966 65.6003,168.299 59.5,164.5C 59.1667,160.667 58.8333,156.833 58.5,153C 58.5102,148.771 59.1768,144.938 60.5,141.5 Z"/></g>
<g><path style="opacity:1" fill="#2e8a76" d="M 109.5,106.5 C 111.827,106.247 113.827,106.914 115.5,108.5C 116.499,120.148 116.832,131.814 116.5,143.5C 117.833,143.5 119.167,143.5 120.5,143.5C 120.5,132.833 120.5,122.167 120.5,111.5C 121.833,111.5 123.167,111.5 124.5,111.5C 125.833,122.167 125.833,132.833 124.5,143.5C 125.5,143.5 126.5,143.5 127.5,143.5C 127.334,134.827 127.5,126.16 128,117.5C 128.759,121.138 129.925,124.471 131.5,127.5C 132.833,127.5 134.167,127.5 135.5,127.5C 135.238,128.978 135.571,130.311 136.5,131.5C 139.188,132.282 140.188,133.782 139.5,136C 142.72,138.103 145.72,140.436 148.5,143C 147.376,143.249 146.376,143.749 145.5,144.5C 146.502,146.51 147.502,148.51 148.5,150.5C 149.833,148.167 151.167,145.833 152.5,143.5C 154.722,148.718 155.055,154.052 153.5,159.5C 154.833,159.5 156.167,159.5 157.5,159.5C 157.867,154.135 158.533,148.802 159.5,143.5C 160.833,142.167 162.167,142.167 163.5,143.5C 164.167,148.985 164.833,154.319 165.5,159.5C 165.785,161.288 165.452,162.955 164.5,164.5C 153.5,171.167 142.5,177.833 131.5,184.5C 126.139,181.488 120.806,178.488 115.5,175.5C 115.5,169.5 115.5,163.5 115.5,157.5C 120.167,157.5 124.833,157.5 129.5,157.5C 130.167,158.167 130.833,158.833 131.5,159.5C 132.898,161.533 134.898,162.533 137.5,162.5C 144.273,161.303 146.773,157.303 145,150.5C 139.198,143.571 134.032,143.905 129.5,151.5C 124.5,151.5 119.5,151.5 114.5,151.5C 114.5,149.833 114.5,148.167 114.5,146.5C 114.667,134.495 114.5,122.495 114,110.5C 112.333,109.267 110.833,107.933 109.5,106.5 Z"/></g>
<g><path style="opacity:1" fill="#2e8e7a" d="M 173.5,141.5 C 172.212,147.446 172.212,153.446 173.5,159.5C 174.329,154.198 174.829,148.864 175,143.5C 175.333,147.5 175.667,151.5 176,155.5C 178.403,156.479 179.236,157.979 178.5,160C 180.743,162.467 183.41,164.3 186.5,165.5C 187.641,166.425 187.641,167.259 186.5,168C 187.5,169 188.5,170 189.5,171C 192.685,172.407 195.685,173.907 198.5,175.5C 198.336,178.187 198.503,180.854 199,183.5C 199.379,178.76 200.879,178.594 203.5,183C 204.448,183.483 205.448,183.649 206.5,183.5C 206.335,186.518 206.502,189.518 207,192.5C 207.333,190.833 207.667,189.167 208,187.5C 210.443,189.793 212.276,192.293 213.5,195C 215.421,195.36 217.088,196.194 218.5,197.5C 218.596,200.935 220.596,202.935 224.5,203.5C 224.5,210.5 224.5,217.5 224.5,224.5C 220.833,224.5 217.167,224.5 213.5,224.5C 211.052,223.527 208.385,223.194 205.5,223.5C 205.5,220.833 205.5,218.167 205.5,215.5C 204.5,215.5 203.5,215.5 202.5,215.5C 202.665,212.482 202.498,209.482 202,206.5C 201.333,205.833 200.667,205.167 200,204.5C 199.825,208.211 199.325,211.878 198.5,215.5C 197.52,212.914 197.187,210.247 197.5,207.5C 196.5,207.5 195.5,207.5 194.5,207.5C 194.665,204.482 194.498,201.482 194,198.5C 193.333,197.833 192.667,197.167 192,196.5C 191.667,203.5 191.333,210.5 191,217.5C 190.667,217.167 190.333,216.833 190,216.5C 189.501,210.843 189.334,205.176 189.5,199.5C 188.5,199.5 187.5,199.5 186.5,199.5C 186.665,196.482 186.498,193.482 186,190.5C 185.333,189.833 184.667,189.167 184,188.5C 183.825,192.211 183.325,195.878 182.5,199.5C 181.52,196.914 181.187,194.247 181.5,191.5C 178.833,191.5 176.167,191.5 173.5,191.5C 173.5,188.833 173.5,186.167 173.5,183.5C 170.833,183.5 168.167,183.5 165.5,183.5C 165.5,180.833 165.5,178.167 165.5,175.5C 161.36,176.044 160.693,175.044 163.5,172.5C 166.156,170.344 168.656,168.011 171,165.5C 170.86,157.104 171.693,149.104 173.5,141.5 Z"/></g>
<g><path style="opacity:1" fill="#8ab6ad" d="M 129.5,157.5 C 124.833,157.5 120.167,157.5 115.5,157.5C 115.5,163.5 115.5,169.5 115.5,175.5C 114.511,170.025 114.178,164.358 114.5,158.5C 116.571,157.191 119.071,156.525 122,156.5C 124.69,156.503 127.19,156.836 129.5,157.5 Z"/></g>
<g><path style="opacity:1" fill="#0b6654" d="M -0.5,171.5 C 5.40905,174.881 11.2424,178.548 17,182.5C 17.498,185.482 17.6646,188.482 17.5,191.5C 20.8333,191.5 24.1667,191.5 27.5,191.5C 27.5,194.167 27.5,196.833 27.5,199.5C 29.451,199.773 30.951,199.107 32,197.5C 33.4051,200.619 33.9051,203.952 33.5,207.5C 36.0792,207.917 38.2458,207.25 40,205.5C 41.4051,208.619 41.9051,211.952 41.5,215.5C 42.5,215.5 43.5,215.5 44.5,215.5C 44.5,218.167 44.5,220.833 44.5,223.5C 45.5,223.5 46.5,223.5 47.5,223.5C 47.699,210.363 48.3656,210.363 49.5,223.5C 52.0593,223.198 54.3926,223.532 56.5,224.5C 37.5,224.5 18.5,224.5 -0.5,224.5C -0.5,206.833 -0.5,189.167 -0.5,171.5 Z"/></g>
<g><path style="opacity:1" fill="#22816d" d="M 129.5,190.5 C 132.792,190.353 135.792,189.353 138.5,187.5C 138.281,188.675 138.614,189.675 139.5,190.5C 141.839,189.276 144.172,189.276 146.5,190.5C 138.981,190.935 138.648,192.435 145.5,195C 146.833,196.333 148.167,197.667 149.5,199C 149.167,199.333 148.833,199.667 148.5,200C 151.992,201.624 154.992,203.958 157.5,207C 157.167,207.333 156.833,207.667 156.5,208C 159.992,209.624 162.992,211.958 165.5,215C 164.742,216.364 165.242,217.531 167,218.5C 167.249,217.376 167.749,216.376 168.5,215.5C 169.48,218.086 169.813,220.753 169.5,223.5C 170.791,223.263 171.791,223.596 172.5,224.5C 164.167,224.5 155.833,224.5 147.5,224.5C 148.078,222.309 147.078,220.642 144.5,219.5C 143.571,220.689 143.238,222.022 143.5,223.5C 142.167,223.5 140.833,223.5 139.5,223.5C 139.223,220.552 139.556,217.719 140.5,215C 139.5,214 138.5,213 137.5,212C 136.258,211.689 135.258,212.189 134.5,213.5C 132.31,211.476 129.977,209.643 127.5,208C 132.897,208.214 133.564,206.881 129.5,204C 128.258,203.689 127.258,204.189 126.5,205.5C 124.31,203.476 121.977,201.643 119.5,200C 125.715,200.02 126.049,198.52 120.5,195.5C 119.742,196.811 118.742,197.311 117.5,197C 115.957,195.122 114.124,193.622 112,192.5C 111.517,191.552 111.351,190.552 111.5,189.5C 113.604,189.799 115.604,189.466 117.5,188.5C 119.793,186.059 122.127,186.226 124.5,189C 123.833,189.667 123.167,190.333 122.5,191C 124.885,191.556 127.218,191.39 129.5,190.5 Z"/></g>
<g><path style="opacity:1" fill="#1d7a67" d="M 129.5,190.5 C 127.218,191.39 124.885,191.556 122.5,191C 123.167,190.333 123.833,189.667 124.5,189C 122.127,186.226 119.793,186.059 117.5,188.5C 115.604,189.466 113.604,189.799 111.5,189.5C 111.351,190.552 111.517,191.552 112,192.5C 114.124,193.622 115.957,195.122 117.5,197C 118.742,197.311 119.742,196.811 120.5,195.5C 126.049,198.52 125.715,200.02 119.5,200C 121.977,201.643 124.31,203.476 126.5,205.5C 127.258,204.189 128.258,203.689 129.5,204C 133.564,206.881 132.897,208.214 127.5,208C 129.977,209.643 132.31,211.476 134.5,213.5C 135.258,212.189 136.258,211.689 137.5,212C 138.5,213 139.5,214 140.5,215C 139.556,217.719 139.223,220.552 139.5,223.5C 140.833,223.5 142.167,223.5 143.5,223.5C 143.238,222.022 143.571,220.689 144.5,219.5C 147.078,220.642 148.078,222.309 147.5,224.5C 134.167,224.5 120.833,224.5 107.5,224.5C 106.975,221.144 104.975,219.311 101.5,219C 100.276,216.293 98.4425,213.793 96,211.5C 95.6667,213.167 95.3333,214.833 95,216.5C 94.502,213.518 94.3354,210.518 94.5,207.5C 91.6848,205.907 88.6848,204.407 85.5,203C 84.2759,200.293 82.4425,197.793 80,195.5C 79.6667,197.167 79.3333,198.833 79,200.5C 78.502,197.518 78.3354,194.518 78.5,191.5C 81.9827,191.309 85.3161,190.643 88.5,189.5C 90.4546,190.323 92.4546,190.49 94.5,190C 100.269,186.699 106.103,183.532 112,180.5C 118.124,183.474 123.958,186.808 129.5,190.5 Z"/></g>
<g><path style="opacity:1" fill="#298975" d="M 163.5,172.5 C 160.693,175.044 161.36,176.044 165.5,175.5C 165.5,178.167 165.5,180.833 165.5,183.5C 168.167,183.5 170.833,183.5 173.5,183.5C 173.5,186.167 173.5,188.833 173.5,191.5C 176.167,191.5 178.833,191.5 181.5,191.5C 181.187,194.247 181.52,196.914 182.5,199.5C 183.325,195.878 183.825,192.211 184,188.5C 184.667,189.167 185.333,189.833 186,190.5C 186.498,193.482 186.665,196.482 186.5,199.5C 187.5,199.5 188.5,199.5 189.5,199.5C 189.334,205.176 189.501,210.843 190,216.5C 190.333,216.833 190.667,217.167 191,217.5C 191.333,210.5 191.667,203.5 192,196.5C 192.667,197.167 193.333,197.833 194,198.5C 194.498,201.482 194.665,204.482 194.5,207.5C 195.5,207.5 196.5,207.5 197.5,207.5C 197.187,210.247 197.52,212.914 198.5,215.5C 199.325,211.878 199.825,208.211 200,204.5C 200.667,205.167 201.333,205.833 202,206.5C 202.498,209.482 202.665,212.482 202.5,215.5C 203.5,215.5 204.5,215.5 205.5,215.5C 205.5,218.167 205.5,220.833 205.5,223.5C 208.385,223.194 211.052,223.527 213.5,224.5C 199.833,224.5 186.167,224.5 172.5,224.5C 171.791,223.596 170.791,223.263 169.5,223.5C 169.813,220.753 169.48,218.086 168.5,215.5C 167.749,216.376 167.249,217.376 167,218.5C 165.242,217.531 164.742,216.364 165.5,215C 162.992,211.958 159.992,209.624 156.5,208C 156.833,207.667 157.167,207.333 157.5,207C 154.992,203.958 151.992,201.624 148.5,200C 148.833,199.667 149.167,199.333 149.5,199C 148.167,197.667 146.833,196.333 145.5,195C 138.648,192.435 138.981,190.935 146.5,190.5C 144.172,189.276 141.839,189.276 139.5,190.5C 138.614,189.675 138.281,188.675 138.5,187.5C 146.566,182.11 154.9,177.11 163.5,172.5 Z"/></g>
</svg>
